<?xml version="1.0" standalone="no"?>
<!DOCTYPE svg PUBLIC "-//W3C//DTD SVG 20010904//EN"
 "http://www.w3.org/TR/2001/REC-SVG-20010904/DTD/svg10.dtd">
<svg version="1.0" xmlns="http://www.w3.org/2000/svg"
 width="1200.000000pt" height="1200.000000pt" viewBox="0 0 1200.000000 1200.000000"
 preserveAspectRatio="xMidYMid meet">
<metadata>
Created by potrace 1.16, written by Peter Selinger 2001-2019
</metadata>
<g transform="translate(0.000000,1200.000000) scale(0.100000,-0.100000)"
fill="#000000" stroke="none">
<path d="M4205 10233 c9 -88 38 -181 83 -268 52 -101 181 -227 287 -282 160
-82 104 -77 900 -81 755 -4 803 -1 923 44 134 50 279 170 351 289 49 80 90
205 98 291 l6 74 -1328 0 -1327 0 7 -67z"/>
<path d="M7251 9985 l-281 -314 0 -678 c0 -718 -4 -779 -50 -958 -76 -295
-220 -546 -440 -765 -227 -227 -469 -368 -763 -444 -191 -50 -174 -49 -1417
-56 l-1175 -6 -79 -22 c-349 -101 -600 -377 -661 -729 -26 -149 -15 -284 36
-438 33 -98 83 -179 207 -333 538 -669 1280 -1105 2112 -1241 195 -32 315 -41
546 -41 338 0 629 39 934 126 1168 332 2074 1272 2364 2452 107 436 126 906
55 1356 -95 596 -374 1204 -756 1643 l-54 62 733 3 733 3 80 28 c263 93 457
333 481 596 l7 71 -1166 0 -1166 0 -280 -315z m-3256 -3885 c49 -24 79 -62 95
-119 33 -123 -97 -249 -219 -213 -83 25 -131 90 -131 177 0 130 136 213 255
155z"/>
<path d="M3857 8356 c-48 -18 -74 -41 -98 -88 -42 -82 -16 -159 88 -260 l68
-68 77 78 c82 82 98 110 98 172 0 75 -35 129 -105 161 -47 22 -76 23 -128 5z"/>
<path d="M7704 4463 c-98 -108 -241 -264 -316 -347 -76 -82 -136 -151 -134
-153 2 -2 181 -4 397 -3 438 1 476 5 601 63 146 68 251 167 327 308 46 84 81
207 81 281 l0 48 -388 0 -388 0 -180 -197z"/>
<path d="M5020 2205 l0 -225 40 0 40 0 0 109 c0 120 1 122 66 141 33 10 49 10
78 0 57 -18 68 -44 67 -155 l-1 -95 40 0 40 0 0 106 c0 149 -24 188 -136 219
-20 5 -101 -7 -136 -20 -16 -6 -18 1 -18 69 l0 76 -40 0 -40 0 0 -225z"/>
<path d="M7710 2355 l0 -75 -27 11 c-85 33 -214 1 -253 -63 -44 -73 -28 -170
37 -216 56 -39 149 -46 226 -17 10 4 17 3 17 -4 0 -6 17 -11 40 -11 l40 0 0
225 0 225 -40 0 -40 0 0 -75z m-52 -130 l52 -16 0 -64 c0 -60 -2 -65 -28 -79
-55 -28 -120 -25 -161 10 -58 48 -30 135 49 154 19 4 35 8 36 9 0 1 24 -6 52
-14z"/>
<path d="M530 2190 l0 -210 45 0 45 0 0 152 0 151 75 -72 75 -73 80 72 80 72
0 -151 0 -151 40 0 40 0 0 210 0 210 -43 0 c-40 0 -47 -5 -117 -75 l-75 -75
-75 75 c-73 72 -77 75 -123 75 l-47 0 0 -210z"/>
<path d="M3270 2350 l0 -50 -40 0 c-38 0 -40 -2 -40 -30 0 -28 2 -30 40 -30
l40 0 0 -130 0 -130 40 0 40 0 0 130 0 130 40 0 c38 0 40 2 40 30 0 28 -2 30
-40 30 l-40 0 0 50 0 50 -40 0 -40 0 0 -50z"/>
<path d="M3830 2190 l0 -210 45 0 45 0 0 152 0 152 74 -73 75 -74 78 72 78 72
3 -150 3 -151 39 0 40 0 0 210 0 210 -43 0 c-40 0 -47 -5 -117 -75 l-75 -75
-75 75 c-73 72 -77 75 -123 75 l-47 0 0 -210z"/>
<path d="M8230 2190 l0 -210 180 0 180 0 0 35 0 34 -137 3 -138 3 -3 57 -3 57
123 3 123 3 1 33 1 32 -123 0 -124 0 0 45 0 45 140 0 140 0 0 35 0 35 -180 0
-180 0 0 -210z"/>
<path d="M1310 2300 c-67 -9 -100 -19 -100 -30 0 -5 4 -20 10 -34 8 -22 13
-24 32 -17 82 31 183 18 207 -27 10 -18 7 -19 -84 -14 -105 5 -143 -5 -175
-46 -45 -57 -6 -133 78 -150 50 -11 135 -2 171 18 17 9 21 8 21 -5 0 -11 11
-15 41 -15 l41 0 -3 108 c-3 85 -8 114 -24 142 -37 62 -106 85 -215 70z"/>
<path d="M1858 2284 c-27 -13 -49 -22 -49 -19 -1 3 -2 11 -3 18 0 7 -19 13
-44 15 l-43 3 2 -161 1 -161 41 3 42 3 1 93 c2 107 12 125 78 144 23 6 44 14
48 17 10 8 -5 64 -18 67 -5 2 -30 -8 -56 -22z"/>
<path d="M2805 2300 c-90 -13 -98 -18 -91 -53 8 -39 8 -40 42 -26 48 18 146
17 177 -4 50 -33 35 -44 -52 -39 -100 6 -142 -2 -175 -33 -28 -26 -35 -79 -16
-115 25 -47 116 -66 210 -43 46 11 65 13 68 4 2 -6 22 -11 44 -11 l41 0 -5
105 c-4 76 -11 115 -25 142 -32 62 -114 89 -218 73z"/>
<path d="M4607 2296 c-129 -35 -175 -176 -85 -263 43 -42 80 -55 155 -55 110
-1 183 58 191 154 3 44 0 59 -20 88 -46 68 -149 101 -241 76z m143 -85 c61
-44 41 -134 -34 -159 -76 -25 -156 22 -156 93 0 77 117 118 190 66z"/>
<path d="M5710 2300 c-19 -4 -43 -11 -52 -15 -11 -4 -18 -3 -18 4 0 6 -17 11
-40 11 l-40 0 0 -160 0 -160 40 0 40 0 0 110 c0 106 1 110 25 126 30 20 92 22
124 5 35 -19 51 -71 51 -161 l0 -80 40 0 40 0 0 110 c0 106 1 110 25 126 53
34 135 12 155 -42 6 -14 10 -63 10 -110 l0 -84 40 0 40 0 0 94 c0 131 -19 180
-84 213 -44 23 -135 20 -186 -5 -41 -20 -43 -20 -73 -2 -40 22 -91 30 -137 20z"/>
<path d="M6500 2304 c-14 -2 -48 -9 -76 -14 l-52 -11 11 -35 c8 -25 15 -33 26
-29 37 14 118 25 146 19 38 -8 75 -31 75 -47 0 -10 -24 -12 -97 -9 -114 4
-159 -12 -179 -63 -38 -99 70 -163 216 -128 46 11 65 13 68 4 2 -6 22 -11 44
-11 l41 0 -6 106 c-7 123 -25 169 -78 195 -37 19 -99 29 -139 23z"/>
<path d="M7025 2295 c-29 -8 -51 -9 -53 -4 -2 5 -21 9 -43 9 l-39 0 0 -160 0
-160 40 0 40 0 0 110 0 109 31 16 c65 34 149 14 169 -41 6 -14 10 -63 10 -110
l0 -84 40 0 40 0 0 98 c0 82 -4 105 -22 142 -37 73 -117 101 -213 75z"/>
<path d="M9350 2300 c-19 -4 -47 -11 -62 -15 -18 -5 -28 -3 -28 4 0 6 -17 11
-40 11 l-40 0 0 -225 0 -225 40 0 40 0 0 76 c0 68 2 75 18 69 105 -40 227 -13
273 61 26 42 26 128 -1 171 -33 55 -126 89 -200 73z m100 -89 c52 -37 51 -105
-2 -144 -33 -25 -112 -26 -157 -2 -29 14 -31 19 -31 69 0 59 8 70 67 92 44 15
87 10 123 -15z"/>
<path d="M9853 2285 c-51 -23 -53 -23 -53 -5 0 17 -7 20 -40 20 l-40 0 0 -160
0 -160 40 0 40 0 0 100 0 100 33 20 c17 11 48 25 69 30 36 10 36 11 25 45 -6
19 -13 35 -16 35 -3 0 -30 -11 -58 -25z"/>
<path d="M10199 2301 c-59 -12 -102 -43 -126 -91 -13 -24 -23 -56 -23 -70 0
-14 10 -46 23 -70 32 -64 89 -91 190 -92 65 0 147 15 147 27 0 2 -5 16 -12 30
-12 27 -14 28 -76 16 -71 -14 -172 16 -172 50 0 5 66 10 148 11 l147 3 -4 35
c-7 74 -61 131 -141 149 -50 12 -50 12 -101 2z"/>
<path d="M10725 2303 c-11 -2 -30 -6 -42 -8 -34 -8 -81 -53 -88 -85 -4 -18 0
-40 9 -59 20 -39 67 -52 172 -48 74 2 79 1 82 -19 5 -32 -44 -48 -123 -41 -36
3 -77 13 -93 21 -28 14 -29 14 -46 -15 -10 -17 -16 -32 -14 -34 18 -16 117
-37 180 -37 121 0 183 41 181 120 -1 26 -9 43 -28 59 -24 21 -36 23 -131 23
-98 0 -104 1 -104 20 0 38 75 48 181 24 23 -5 28 -2 37 25 11 30 10 31 -26 40
-49 12 -122 19 -147 14z"/>
<path d="M11193 2299 c-57 -11 -80 -24 -98 -59 -47 -92 15 -147 154 -134 65 5
79 4 90 -10 12 -15 12 -19 -3 -34 -23 -24 -158 -23 -203 1 l-32 17 -16 -29
c-8 -17 -15 -32 -15 -35 0 -14 120 -38 182 -38 112 1 178 45 178 117 0 66 -36
85 -163 85 -74 0 -96 3 -101 15 -14 38 76 57 158 34 35 -10 42 -9 53 7 7 10
13 23 13 30 0 26 -125 47 -197 33z"/>
<path d="M2054 2248 c13 -29 47 -101 75 -160 l51 -108 43 0 c39 0 45 3 59 33
l16 32 12 -32 c11 -31 15 -33 59 -33 l46 0 70 151 c39 83 72 155 73 160 2 5
-16 9 -41 9 l-45 0 -53 -121 c-49 -113 -53 -119 -65 -97 -20 34 -17 48 21 132
19 43 35 79 35 82 0 2 -17 4 -37 4 -36 0 -39 -3 -57 -47 l-20 -47 -19 47 c-18
44 -22 47 -58 47 l-38 0 40 -90 c39 -88 39 -90 23 -121 l-16 -32 -52 119 -52
119 -47 3 -47 3 24 -53z"/>
<path d="M8711 2283 c9 -10 39 -46 68 -81 l53 -62 -61 -74 c-33 -41 -61 -77
-61 -80 0 -9 100 -7 100 2 0 4 16 25 35 47 l35 40 43 -48 c41 -46 45 -48 90
-45 l47 3 -60 73 c-33 41 -60 78 -60 83 0 5 25 41 56 81 l56 73 -48 3 c-42 3
-51 0 -66 -22 -10 -13 -27 -35 -38 -48 l-19 -23 -41 48 c-39 45 -44 47 -92 47
-48 0 -50 -1 -37 -17z"/>
</g>
</svg>
