<svg width="59" height="51" viewBox="0 0 59 51" fill="none" xmlns="http://www.w3.org/2000/svg">
<path d="M19.5865 3.45447C19.2724 3.42057 19.0343 3.45333 18.7554 3.6075C18.5115 3.7423 18.281 3.91673 18.0523 4.07544L16.8046 4.94718L12.3818 7.97556L7.67024 11.187L6.41853 12.0686L3.72752 13.9064C3.23003 14.246 2.70345 14.569 2.23 14.9395C2.14828 15.0035 2.06751 15.0715 2.04036 15.1745L2.03366 15.2033C1.97665 15.4352 2.00945 15.7268 2.00884 15.9687L2.0074 17.5452L2.00358 23.308C2.00491 23.3988 1.99339 23.5453 2.04081 23.6223C2.0946 23.7096 2.17271 23.7758 2.25642 23.8346L6.59127 26.8032L8.86971 28.3959L22.8432 37.9397L33.0673 44.9304L36.3054 47.1271L37.8838 48.2059C38.0585 48.3161 38.2292 48.3795 38.4293 48.4302C38.6776 48.4582 38.9186 48.4415 39.1501 48.3397C39.4073 48.2266 39.6451 48.0169 39.8792 47.8602L41.5049 46.7796L46.5162 43.4164L52.1882 39.6248L54.2556 38.2495C54.6057 38.0185 54.9925 37.8054 55.3216 37.5477C55.5807 37.3448 55.7552 37.0712 55.8686 36.7682C55.9334 36.5954 55.9812 36.4232 55.9893 36.2383L55.9832 34.8218L55.983 31.9595L55.9896 29.9326C55.9916 29.5707 56.0126 29.1963 55.9885 28.8357C55.9749 28.632 55.9194 28.4322 55.8284 28.2484C55.7084 28.0062 55.5274 27.8383 55.3073 27.6835L52.7722 25.9617L47.0671 22.0933L29.6866 10.262L23.4023 5.96302L21.2961 4.51615L20.476 3.95168C20.1852 3.75154 19.9275 3.56478 19.5865 3.45447Z" fill="#17161E"/>
<path d="M55.2495 28.8284C54.9812 28.9261 54.6978 29.1134 54.4964 29.3127C54.4453 29.3633 54.3508 29.4683 54.3275 29.5329C54.2894 29.6388 54.3111 29.8192 54.3108 29.9341L54.3104 30.8636C54.4421 30.8495 54.56 30.8511 54.6843 30.8996C54.7435 30.9575 54.7826 30.9991 54.7934 31.083C54.8276 31.3494 54.8008 31.653 54.8 31.9228C54.7994 32.1214 54.8256 32.3721 54.7765 32.563C54.7625 32.6172 54.7297 32.664 54.6943 32.7069C54.6174 32.8003 54.5019 32.9079 54.3746 32.9157C54.2812 32.9213 54.2016 32.8991 54.1351 32.8325C54.0909 32.7882 54.0544 32.7207 54.0424 32.6597C54.0175 32.5322 54.0337 32.3727 54.0337 32.2418L54.0383 31.3593L43.0912 38.8854L40.2426 40.8473C40.1828 40.8892 39.8131 41.1151 39.7966 41.1593C39.7812 41.2003 39.7975 41.332 39.7978 41.3838L39.801 42.0715L39.8025 45.1345C39.8017 45.6126 39.8344 46.1183 39.7953 46.5936C39.7913 46.6419 39.7777 46.6848 39.7475 46.7232C39.6822 46.8066 39.567 46.8468 39.4631 46.8533C39.3445 46.8605 39.2157 46.8086 39.134 46.7241C39.0907 46.6793 39.0569 46.628 39.0487 46.5659C39.0278 46.407 39.0421 46.229 39.0417 46.0679L39.0393 45.1259L39.0322 41.947L39.0281 41.6425L38.1274 42.2912L38.1109 45.8572V46.7746C38.1114 46.9385 38.0975 47.1196 38.1259 47.2814C38.1442 47.385 38.2011 47.4827 38.2759 47.5573C38.3726 47.6537 38.5092 47.6688 38.6412 47.6704C38.7538 47.6718 38.8412 47.6424 38.9388 47.5887C39.1138 47.4921 39.2808 47.3589 39.4451 47.2451L40.3433 46.6395L44.6595 43.7518L52.2728 38.6613L54.3159 37.315C54.547 37.1596 54.8346 37.0091 55.0329 36.8166C55.1572 36.6959 55.2253 36.5141 55.2497 36.3465C55.2894 36.073 55.2653 35.7641 55.2642 35.4873L55.2568 33.8754L55.2495 28.8284Z" fill="white"/>
<path d="M54.5535 33.7111C54.5082 33.7046 54.4596 33.7015 54.4144 33.7111C54.3058 33.7343 54.173 33.8539 54.1131 33.9414C54.0785 33.992 54.0586 34.0449 54.0512 34.1052C54.0136 34.4123 54.0405 34.7452 54.0405 35.0561C54.0404 35.4187 54.0056 35.8152 54.0643 36.1707C54.1225 36.2679 54.1831 36.2888 54.2869 36.3309C54.3535 36.3322 54.421 36.3324 54.4838 36.3081C54.6145 36.2574 54.7259 36.112 54.7763 35.9867C54.8288 35.8558 54.8323 33.9945 54.7716 33.8853C54.7166 33.7861 54.6603 33.7473 54.5535 33.7111Z" fill="#17161E"/>
<path d="M51.956 33.4394C51.8601 33.4422 51.8098 33.4562 51.7283 33.5059C51.1586 33.853 50.6169 34.2733 50.0677 34.653L46.6613 36.9977L43.4443 39.2121L42.1188 40.129C41.7968 40.3523 41.4681 40.5658 41.1675 40.8168C41.116 41.051 41.1534 41.3693 41.152 41.6113L41.1432 43.5956L41.1361 44.5732C41.1346 44.7333 41.1146 44.914 41.1417 45.0705C41.1616 45.1855 41.2174 45.1939 41.3128 45.2547L41.4712 45.2799C41.5426 45.2613 41.5897 45.2377 41.651 45.1973L45.6761 42.4799L49.7336 39.7667L51.1928 38.7958C51.496 38.5993 51.8556 38.4228 52.1135 38.1734C52.1545 37.9584 52.1282 37.6951 52.128 37.4752L52.1269 36.0962L52.1268 34.544C52.1285 34.2132 52.1536 33.8774 52.1168 33.5481C52.0608 33.4735 52.0413 33.4715 51.956 33.4394Z" fill="#17161E"/>
<path d="M43.9783 39.4949L43.5317 39.8589L43.5323 43.2699L43.9497 42.9606C44.0115 42.8838 43.9799 39.8377 43.9783 39.4949Z" fill="white"/>
<path d="M49.7026 35.5519C49.5518 35.638 49.41 35.7535 49.2693 35.8555L49.2633 39.4317L49.707 39.1364L49.7026 35.5519Z" fill="white"/>
<path d="M46.8311 37.5103L46.3738 37.8587L46.3812 41.3989L46.8252 41.0779L46.8311 37.5103Z" fill="white"/>
<path d="M2.76044 18.7644L2.76266 23.2756L37.3438 46.9225L37.3628 42.389C37.1358 42.1901 36.8096 42.0195 36.5566 41.845L34.0994 40.1828L25.6232 34.394L18.0349 29.1999L14.6323 26.8344L10.7647 24.2064L4.70554 20.066L2.76044 18.7644Z" fill="white"/>
<path d="M6.54006 24.2805C6.46139 24.2662 6.39624 24.2662 6.32034 24.2917C6.20849 24.3292 6.1481 24.4063 6.09703 24.5069C6.0521 24.5954 6.04151 24.7012 6.08013 24.7944C6.10556 24.8556 6.15132 24.898 6.20312 24.9385C6.49579 25.1675 6.82992 25.3638 7.13528 25.5801L10.6575 27.9773L12.2826 29.0875C12.5131 29.2438 12.7329 29.4344 12.9864 29.5529C13.0282 29.568 13.0592 29.5734 13.1047 29.5736C13.2065 29.574 13.3 29.4996 13.3643 29.4287C13.4567 29.3266 13.4549 29.2209 13.4506 29.0909C13.399 28.9715 13.3209 28.9091 13.2177 28.8338L10.719 27.1428L8.01847 25.2916L7.13822 24.6772C6.95168 24.5428 6.75513 24.3669 6.54006 24.2805Z" fill="#17161E"/>
<path d="M19.3962 4.16929L19.3499 4.16071C19.0111 4.28882 18.6647 4.58647 18.3611 4.78676L14.9451 7.12624L6.12677 13.1658L2.74199 15.4863L2.75501 17.8037C2.90475 17.9817 3.25034 18.1571 3.44696 18.2919L5.03251 19.3853L12.0718 24.174L19.6137 29.3703L32.0805 37.8853L37.7045 41.709L37.874 41.5797L41.8996 38.7929L49.5737 33.5107L53.1829 31.0164C53.2769 30.9482 53.4743 30.8515 53.5381 30.7702C53.5471 30.7587 53.5365 30.5496 53.5363 30.5224C53.5344 30.2192 53.4959 29.8553 53.5763 29.5603C53.7483 28.9292 54.1909 28.5452 54.7446 28.224C53.9456 27.6138 53.0756 27.0669 52.24 26.5045L48.2719 23.818L41.2497 19.0198L34.2841 14.3034L24.6268 7.69827L21.6294 5.64524C20.9098 5.14599 20.173 4.57587 19.3962 4.16929Z" fill="white"/>
<path d="M19.4111 5.96588L14.4957 9.28608L10.0643 12.3297L7.13268 14.3482C6.66493 14.6706 6.15409 14.9771 5.7095 15.327C5.6556 15.3693 5.59621 15.4245 5.56939 15.4885C5.40065 15.891 5.86589 16.0753 6.13636 16.2582L14.7058 22.1736L21.0383 26.5578L23.0815 27.9592C23.1858 28.0343 23.3716 28.145 23.4188 28.2593C23.3576 28.2934 23.3094 28.3185 23.2619 28.3707C23.3507 28.8475 23.4893 29.3208 23.6109 29.791C23.6552 29.9624 23.6937 30.2362 23.7879 30.3817C24.2981 30.6873 24.7787 31.0516 25.2701 31.386L28.079 33.303L34.8926 37.9418L36.3566 38.9413C36.471 39.0189 36.7018 39.236 36.8375 39.2337L37.8081 39.2379L38.6281 39.2432L47.4736 33.1837L50.6154 31.0288C51.0127 30.749 51.4642 30.4964 51.8104 30.1582C51.8654 29.8836 51.8389 29.5798 51.8383 29.3005C51.8375 28.8877 51.8493 28.4711 51.82 28.0593C51.6066 27.8303 51.2975 27.658 51.0365 27.4831L49.7599 26.6249L43.0274 22.0513L27.1921 11.2511L22.027 7.72888L19.4111 5.96588Z" fill="#17161E"/>
<path d="M14.5222 10.1769L13.8416 10.6455L31.4742 22.6993C31.706 22.577 31.9366 22.3992 32.1479 22.2459L14.5222 10.1769Z" fill="white"/>
<path d="M15.8936 9.25946L15.1806 9.73756L32.8066 21.7734C33.0424 21.6656 33.2882 21.4692 33.4995 21.3194L15.8936 9.25946Z" fill="white"/>
<path d="M8.64855 14.2521L8.6132 14.2441C8.44423 14.2719 8.09997 14.5777 7.95255 14.6865L25.4456 26.7898L26.1523 26.2883L8.64855 14.2521Z" fill="white"/>
<path d="M7.32426 15.2034L7.23413 15.1846L6.54938 15.6651L24.0204 27.6703C24.0504 27.6937 24.068 27.7001 24.1035 27.712L24.7422 27.2443L7.32426 15.2034Z" fill="white"/>
<path d="M13.1587 11.133C13.0345 11.1934 12.9126 11.2905 12.7979 11.3686L12.028 11.9005L10.2288 13.1316L9.31219 13.7608L26.8281 25.873L30.7939 23.1488L13.1587 11.133Z" fill="white"/>
<path d="M19.4586 6.88716L19.3945 6.87537L16.5798 8.78832C16.7206 8.96112 17.0525 9.13397 17.2432 9.26757L19.6122 10.9015L28.4329 16.9377L32.1873 19.5027L33.8216 20.61C34.0112 20.7404 34.3557 20.9262 34.4749 21.1164C34.5292 21.203 34.5369 21.2935 34.5099 21.3906C34.4795 21.4994 34.4141 21.5757 34.3234 21.6422L31.6644 23.4458L26.9308 26.6793L25.059 27.9324C24.7443 28.1455 24.4332 28.4025 24.093 28.5724L24.0587 28.5894C24.1129 28.7904 24.3433 29.8238 24.442 29.9104C24.5953 30.0451 24.8003 30.1589 24.9703 30.2765L26.2388 31.1413L29.9498 33.6592L35.6911 37.5879L36.7433 38.3057C36.8247 38.3603 36.9598 38.4779 37.0459 38.5072C37.0891 38.522 37.2012 38.5083 37.25 38.5086L37.7594 38.512C37.9237 38.5151 38.2 38.5587 38.352 38.5233C38.4644 38.4972 38.6567 38.3243 38.7592 38.2525L39.9122 37.4525L47.1048 32.5326L51.0812 29.8074L51.0884 28.4203L19.4586 6.88716Z" fill="white"/>
<path d="M38.4561 23.4085C36.3102 23.2466 33.9733 23.8753 32.3276 25.2519C31.2252 26.1741 30.4324 27.4502 30.3291 28.8877C30.2329 30.2272 30.7164 31.444 31.6 32.4529C33.0226 34.0772 35.2264 34.9075 37.3645 35.0626L37.4005 35.066C37.9225 35.1125 38.4609 35.0854 38.9809 35.0303C40.6001 34.8585 42.2747 34.2813 43.5372 33.2488C44.6062 32.3745 45.4387 31.1821 45.5532 29.7874C45.6676 28.3944 45.1466 27.0577 44.223 26.0094C42.7745 24.3651 40.6258 23.5595 38.4561 23.4085Z" fill="#17161E"/>
<path d="M38.454 25.1472C37.6994 25.1029 37.0147 25.1791 36.2727 25.3133C36.5548 25.8267 36.7838 26.3704 37.0396 26.8973C37.1043 27.0305 37.1828 27.2795 37.2889 27.3707L37.3923 27.3526C37.7827 27.2825 38.1194 27.3381 38.5053 27.3447L39.6597 25.3489L38.454 25.1472Z" fill="white"/>
<path d="M38.5521 31.3274C38.1647 31.393 37.8038 31.3937 37.4167 31.3336L36.2389 33.5242L37.2132 33.6656C38.0068 33.7824 38.8132 33.6805 39.5908 33.5164L38.5521 31.3274Z" fill="white"/>
<path d="M40.547 25.6394L40.4466 25.6249C40.2733 25.8381 40.136 26.0968 39.9946 26.3318L39.2433 27.5983C39.6252 27.7967 39.8792 28.0076 40.1706 28.3176L41.2271 27.9375L42.9062 27.3161C42.7653 27.1577 42.6331 26.9894 42.4797 26.8421C41.9304 26.3145 41.2662 25.9023 40.547 25.6394Z" fill="white"/>
<path d="M32.5727 28.0853L32.503 28.0936C32.1893 28.9716 32.2041 29.9152 32.6162 30.759L34.3662 30.1093L35.3477 29.773C35.2838 29.517 35.2938 29.2262 35.3366 28.9676L35.3448 28.9197L32.5727 28.0853Z" fill="white"/>
<path d="M35.4997 25.5332C34.4376 25.9198 33.5199 26.4479 32.8641 27.3821L34.379 27.8254C34.5402 27.8756 35.6379 28.2554 35.6895 28.239C35.7608 28.2163 35.9628 27.9907 36.0322 27.9327C36.1898 27.8011 36.3544 27.717 36.5425 27.6353L35.4997 25.5332Z" fill="white"/>
<path d="M40.0796 30.4639C39.8595 30.7089 39.5943 30.8861 39.309 31.05C39.3047 31.1565 39.448 31.3959 39.4951 31.5002L40.3253 33.2722L40.8667 33.0492C41.1078 32.9368 41.3349 32.8001 41.5609 32.6612C42.1274 32.3003 42.5887 31.8683 42.998 31.3407L40.0796 30.4639Z" fill="white"/>
<path d="M43.3579 27.9185L40.5517 28.9863C40.5768 29.2825 40.554 29.5461 40.5025 29.8385L41.4378 30.1082L43.3909 30.713L43.4143 30.6786C43.48 30.5633 43.5206 30.392 43.5587 30.2644C43.8037 29.4434 43.642 28.7004 43.3579 27.9185Z" fill="white"/>
<path d="M35.7092 30.4286L32.9465 31.4001C33.373 31.9876 33.8501 32.4178 34.4653 32.8108L35.49 33.3155L36.7061 31.112C36.3108 30.9428 36.0026 30.7392 35.7092 30.4286Z" fill="white"/>
<path d="M38.1954 28.0273C37.6646 28.008 37.2321 28.0635 36.7626 28.3225C36.4478 28.4962 36.1596 28.7512 36.073 29.1115C36.0166 29.3459 36.0688 29.6336 36.1995 29.8349C36.5105 30.3143 37.0614 30.5447 37.6081 30.6519C38.1608 30.7366 38.7721 30.5844 39.2247 30.263C39.4993 30.068 39.7436 29.7662 39.793 29.4306C39.8314 29.1693 39.7234 28.9162 39.5601 28.7143C39.2244 28.2989 38.7194 28.0907 38.1954 28.0273Z" fill="white"/>
<path d="M38.6043 24.147C37.7188 24.0713 36.7725 24.1456 35.9025 24.3146C34.2867 24.6287 32.6827 25.5533 31.7639 26.9167C31.1396 27.8432 30.9409 29.0062 31.1711 30.0861C31.4553 31.4199 32.3876 32.3453 33.5078 33.068L33.5342 33.0505C33.1956 32.7749 32.8763 32.496 32.6058 32.1522C31.8586 31.2029 31.3857 30.0106 31.5595 28.7965C31.7482 27.4777 32.5241 26.4704 33.5876 25.6809C34.0106 25.3668 34.5052 25.1467 34.9999 24.9662C36.2776 24.5002 37.6748 24.3268 39.0265 24.5156L40.067 24.7272C41.5928 25.1462 43.1274 26.0898 43.9131 27.4721C44.4222 28.3678 44.593 29.3936 44.301 30.3882C43.8553 31.9063 42.6112 32.9453 41.25 33.6797V33.7101C41.9522 33.41 42.6078 33.0331 43.1984 32.5516C44.0934 31.8219 44.69 30.8603 44.7956 29.7134C44.9007 28.5701 44.479 27.4515 43.7271 26.5829C42.4405 25.0966 40.5603 24.3058 38.6043 24.147Z" fill="white"/>
</svg>
