<svg width="26" height="33" viewBox="0 0 26 33" fill="none" xmlns="http://www.w3.org/2000/svg">
<path d="M8.32582 27.0437C7.50496 27.0437 6.81285 26.7594 6.24949 26.1907C5.68616 25.6219 5.40449 24.9232 5.40449 24.0945V3.44928C5.40449 2.62058 5.68616 1.92184 6.24949 1.35309C6.81285 0.784362 7.50496 0.5 8.32582 0.5H23.0787C23.8995 0.5 24.5916 0.784362 25.155 1.35309C25.7183 1.92184 26 2.62058 26 3.44928V24.0945C26 24.9232 25.7183 25.6219 25.155 26.1907C24.5916 26.7594 23.8995 27.0437 23.0787 27.0437H8.32582ZM8.32582 25.2742H23.0787C23.3708 25.2742 23.6386 25.1513 23.882 24.9055C24.1255 24.6597 24.2472 24.3894 24.2472 24.0945V3.44928C24.2472 3.15435 24.1255 2.88399 23.882 2.63823C23.6386 2.39246 23.3708 2.26958 23.0787 2.26958H8.32582C8.03371 2.26958 7.76592 2.39246 7.52245 2.63823C7.27901 2.88399 7.1573 3.15435 7.1573 3.44928V24.0945C7.1573 24.3894 7.27901 24.6597 7.52245 24.9055C7.76592 25.1513 8.03371 25.2742 8.32582 25.2742ZM2.92133 32.5C2.10047 32.5 1.40837 32.2156 0.845 31.6469C0.281666 31.0781 0 30.3794 0 29.5507V7.13591H1.75281V29.5507C1.75281 29.8456 1.87452 30.116 2.11796 30.3617C2.3614 30.6075 2.62919 30.7304 2.92133 30.7304H19.427V32.5H2.92133Z" fill="#17161E"/>
</svg>
