<svg width="180" height="28" viewBox="0 0 180 28" fill="none" xmlns="http://www.w3.org/2000/svg">
<path d="M164.259 16.8159C164.259 14.5373 164.966 12.7414 166.38 11.4283C167.794 10.0959 169.636 9.42969 171.906 9.42969C174.176 9.42969 175.998 10.0669 177.372 11.3414C178.766 12.6159 179.462 14.3442 179.462 16.5262V17.7428H167.903C167.943 18.8821 168.321 19.7993 169.038 20.4945C169.775 21.1704 170.88 21.5083 172.354 21.5083C174.484 21.5083 175.749 20.7262 176.147 19.1621H180C179.741 20.4945 178.965 21.7304 177.67 22.8697C176.376 23.9897 174.604 24.5497 172.354 24.5497C169.705 24.5497 167.694 23.8159 166.32 22.3483C164.946 20.8807 164.259 19.0366 164.259 16.8159ZM167.903 15.4835H175.818C175.818 14.6145 175.49 13.9 174.833 13.34C174.196 12.78 173.22 12.5 171.906 12.5C170.591 12.5 169.596 12.7897 168.919 13.369C168.242 13.929 167.903 14.6338 167.903 15.4835Z" fill="white"/>
<path d="M151.439 24.2601V11.7181C151.439 10.9843 151.638 10.4243 152.036 10.0381C152.455 9.65185 153.042 9.4684 153.799 9.48771L163.028 9.71943V12.9636L155.292 12.7608V24.2601H151.439Z" fill="white"/>
<path d="M134.678 22.5221C133.145 21.1704 132.378 19.3262 132.378 16.9897C132.378 14.6531 133.145 12.809 134.678 11.4573C136.211 10.1055 138.192 9.42969 140.622 9.42969C143.031 9.42969 145.002 10.1055 146.536 11.4573C148.069 12.809 148.836 14.6531 148.836 16.9897C148.836 19.3262 148.069 21.1704 146.536 22.5221C145.002 23.8738 143.031 24.5497 140.622 24.5497C138.192 24.5497 136.211 23.8738 134.678 22.5221ZM137.396 13.8324C136.619 14.6049 136.231 15.6573 136.231 16.9897C136.231 18.3221 136.619 19.3745 137.396 20.1469C138.172 20.9193 139.248 21.3056 140.622 21.3056C141.996 21.3056 143.071 20.9193 143.848 20.1469C144.624 19.3745 145.012 18.3221 145.012 16.9897C145.012 15.6573 144.624 14.6049 143.848 13.8324C143.071 13.06 141.996 12.6738 140.622 12.6738C139.248 12.6738 138.172 13.06 137.396 13.8324Z" fill="white"/>
<path d="M109.896 14.0353C109.896 11.0036 110.841 8.50291 112.733 6.53325C114.625 4.54429 117.154 3.5498 120.32 3.5498C123.167 3.5498 125.477 4.2836 127.249 5.75118C129.021 7.19946 130.067 9.18843 130.385 11.7181H126.532C126.293 10.1346 125.626 8.91808 124.531 8.06843C123.456 7.21877 122.072 6.79394 120.379 6.79394C118.289 6.79394 116.656 7.44084 115.481 8.73463C114.326 10.0091 113.749 11.776 113.749 14.0353C113.749 16.2946 114.326 18.0712 115.481 19.365C116.656 20.6588 118.289 21.3057 120.379 21.3057C122.072 21.3057 123.456 20.8808 124.531 20.0312C125.626 19.1622 126.293 17.936 126.532 16.3526H130.385C130.067 18.9015 129.021 20.9098 127.249 22.3774C125.477 23.8257 123.167 24.5498 120.32 24.5498C117.154 24.5498 114.625 23.565 112.733 21.5953C110.841 19.6064 109.896 17.0864 109.896 14.0353Z" fill="white"/>
<path d="M90.9873 20.2628C90.9873 19.0076 91.4154 18.0131 92.2717 17.2793C93.1478 16.5455 94.5815 16.0628 96.5728 15.8311L101.77 15.2228C101.71 13.4076 100.555 12.5 98.3052 12.5C97.2498 12.5 96.4035 12.7318 95.7663 13.1952C95.149 13.6393 94.8404 14.3152 94.8404 15.2228H91.1964C91.1964 13.5042 91.8535 12.1138 93.1677 11.0518C94.482 9.97038 96.1944 9.42969 98.3052 9.42969C100.476 9.42969 102.238 10.009 103.592 11.1676C104.946 12.3069 105.623 13.9483 105.623 16.0918V21.0159H107.803V24.26H104.757C104.1 24.26 103.592 24.0862 103.234 23.7387C102.895 23.3911 102.726 22.9083 102.726 22.2904V21.798L103.323 20.1469H102.308C101.591 23.0821 99.5796 24.5497 96.2741 24.5497C95.1988 24.5497 94.2828 24.4049 93.5262 24.1152C92.7894 23.8256 92.2517 23.4393 91.9132 22.9566C91.5747 22.4738 91.3358 22.02 91.1964 21.5952C91.057 21.1511 90.9873 20.7069 90.9873 20.2628ZM94.8404 19.6255C94.8404 20.1855 95.0295 20.6104 95.4079 20.9C95.8061 21.1704 96.3239 21.3056 96.9611 21.3056C98.4147 21.3056 99.5796 20.958 100.456 20.2628C101.332 19.5483 101.77 18.6214 101.77 17.4821L97.2597 18.0324C96.4035 18.129 95.7862 18.2931 95.4079 18.5249C95.0295 18.7373 94.8404 19.1042 94.8404 19.6255Z" fill="white"/>
<path d="M73.1001 24.2604L78.7752 17.4535V16.4977L73.1001 9.71973H77.67L81.5828 14.8466L85.4658 9.71973H90.0357L84.3606 16.4977V17.4535L90.0357 24.2604H85.4658L81.5828 19.1046L77.67 24.2604H73.1001Z" fill="white"/>
<path d="M57.356 16.8159C57.356 14.5373 58.0629 12.7414 59.4766 11.4283C60.8904 10.0959 62.7323 9.42969 65.0024 9.42969C67.2724 9.42969 69.0944 10.0669 70.4683 11.3414C71.8622 12.6159 72.5592 14.3442 72.5592 16.5262V17.7428H60.9999C61.0398 18.8821 61.4181 19.7993 62.135 20.4945C62.8717 21.1704 63.9769 21.5083 65.4504 21.5083C67.581 21.5083 68.8455 20.7262 69.2437 19.1621H73.0968C72.8379 20.4945 72.0613 21.7304 70.767 22.8697C69.4727 23.9897 67.7005 24.5497 65.4504 24.5497C62.802 24.5497 60.7909 23.8159 59.4169 22.3483C58.0429 20.8807 57.356 19.0366 57.356 16.8159ZM60.9999 15.4835H68.9152C68.9152 14.6145 68.5866 13.9 67.9295 13.34C67.2923 12.78 66.3166 12.5 65.0024 12.5C63.6881 12.5 62.6925 12.7897 62.0155 13.369C61.3385 13.929 60.9999 14.6338 60.9999 15.4835Z" fill="white"/>
<path d="M51.1333 3.83936H54.9565V24.26H51.1333V15.889H39.813V24.26H35.96V3.83936H39.813V12.6449H51.1333V3.83936Z" fill="white"/>
<path fill-rule="evenodd" clip-rule="evenodd" d="M4.34537 4.36617C4.49487 4.2445 4.65501 4.13356 4.8147 4.02293C4.89381 3.96813 4.9728 3.9134 5.05034 3.85749L8.06172 1.69465C11.2172 -0.59234 12.7949 -0.578207 16.097 1.82011L20.6767 5.06459C22.5818 6.44639 23.4953 7.37906 23.9572 9.858C24.013 10.1569 24.0074 10.489 24.0022 10.8059V10.806V10.8061C24.0006 10.8994 23.9991 10.9915 23.9992 11.081L23.9992 16.163C23.9992 16.314 24.0011 16.4663 24.0029 16.6191C24.0101 17.202 24.0173 17.7939 23.9189 18.3631C23.4678 20.972 22.1339 21.9445 20.0686 23.3982L15.9075 26.366C15.8047 26.4391 15.7028 26.5133 15.601 26.5875C15.2712 26.8277 14.9418 27.0676 14.5838 27.2666C12.4038 28.4783 10.5258 28.1162 8.56247 26.7115L4.03382 23.4643C3.85442 23.3666 3.67659 23.2304 3.50462 23.0987C3.43626 23.0463 3.36882 22.9946 3.30257 22.9464C1.31968 21.5023 0.0161884 20.0326 0.010374 17.4055L0.00995888 11.28C0.0100054 11.183 0.00757351 11.0823 0.00510155 10.9799C-0.00188038 10.6907 -0.0091817 10.3883 0.0381409 10.1193C0.513617 7.41587 1.34775 6.50386 3.43613 5.01984L4.04794 4.57473C4.07392 4.55578 4.09999 4.53579 4.12629 4.51563C4.19691 4.46151 4.26916 4.40614 4.34537 4.36617ZM5.69556 9.99938C5.08706 11.0247 5.06903 11.6273 5.06837 12.7984L5.06867 14.2513C5.06884 14.483 5.06528 14.6986 5.06193 14.902V14.902C5.04158 16.137 5.02865 16.9212 5.90137 18.1074C6.33882 18.5439 6.83352 18.8837 7.34886 19.2196L9.01012 20.2678C9.11519 20.3343 9.21662 20.3988 9.31477 20.4613C11.3129 21.7325 11.9505 22.1382 14.1492 20.8066L16.7111 19.2213C18.4389 18.1175 18.9361 17.3575 18.9391 15.3853L18.9377 11.7026C18.9068 10.252 17.8999 9.39986 16.7794 8.70937L14.2818 7.15937C12.5796 6.10562 11.8362 5.9099 9.95295 7.0223L8.24683 8.08546C8.07801 8.19277 7.90599 8.2982 7.73334 8.40401C7.23337 8.71043 6.72812 9.02009 6.27979 9.38808C6.12921 9.51164 6.00908 9.64847 5.88672 9.78782C5.83074 9.85159 5.77429 9.91588 5.71425 9.97968L5.69556 9.99938ZM11.9422 8.43124C12.5833 8.33916 13.3874 8.89054 14.0101 9.31752C14.1639 9.42296 14.3066 9.52081 14.433 9.59951L15.5676 10.3027C16.7757 11.0594 16.9344 11.4152 16.9356 12.9161L16.9355 15.2585C16.9343 16.4563 16.6818 16.8912 15.7162 17.492L13.2746 19.0133C13.2359 19.0356 13.197 19.0586 13.1577 19.0818L13.1576 19.0819C12.9869 19.1828 12.8102 19.2872 12.627 19.352L12.5996 19.3614C12.4264 19.4224 12.2621 19.4434 12.0804 19.4625C11.2948 19.4828 10.4714 18.9158 9.76016 18.4261C9.58985 18.3089 9.42597 18.1961 9.27059 18.0968C9.08742 17.9797 8.91588 17.8746 8.75592 17.7765L8.75591 17.7765C7.64235 17.0939 7.09054 16.7557 7.08929 15.1482L7.08989 12.7862C7.09125 11.7605 7.1688 11.2346 8.07911 10.5646C8.47319 10.2745 8.8998 10.0213 9.32396 9.76959L9.32401 9.76956C9.48843 9.67198 9.65247 9.57461 9.81412 9.4754C9.94984 9.39208 10.0832 9.30522 10.2161 9.21861L10.2161 9.21861C10.7539 8.86829 11.2853 8.52211 11.9422 8.43124ZM11.9354 11.0215C9.91314 11.1747 9.2392 12.7924 9.39393 14.6168C9.50494 15.9262 10.7919 16.9988 12.1005 16.942C12.8396 16.8909 13.5803 16.4963 14.0677 15.9402C14.6878 15.2327 14.7045 14.2198 14.6424 13.3251C14.5543 12.0548 13.2024 10.9284 11.9354 11.0215ZM13.4902 15.2678C14.3981 14.0202 13.6788 11.7734 11.8346 11.9246C10.7093 12.1266 10.2559 12.9186 10.2566 13.9963C10.2573 15.2073 10.8962 16.1175 12.2471 15.9859C12.7436 15.9085 13.1901 15.6803 13.4902 15.2678Z" fill="url(#paint0_linear_1_394)"/>
<defs>
<linearGradient id="paint0_linear_1_394" x1="-4.65251" y1="12.0843" x2="29.6164" y2="0.842014" gradientUnits="userSpaceOnUse">
<stop offset="0.249585" stop-color="#E3FE0F"/>
<stop offset="1" stop-color="#506491"/>
</linearGradient>
</defs>
</svg>
