<svg width="60" height="56" viewBox="0 0 60 56" fill="none" xmlns="http://www.w3.org/2000/svg">
<path d="M32.4 0.705078C32.7466 0.960561 33.1663 1.15225 33.5385 1.37058L36.3916 3.02462L48.5765 10.1171L52.9579 12.6999L54.4437 13.5843C54.7253 13.7509 55.031 13.9059 55.2984 14.0934C55.3569 14.1343 55.4065 14.1841 55.4372 14.2496C55.469 14.3173 55.4775 14.3837 55.4793 14.458L55.4904 17.6444L55.4841 25.8659L55.4974 38.25L55.4971 40.7744L55.4973 41.4012C55.4977 41.5154 55.5121 41.6628 55.4701 41.7708C55.4109 41.9227 55.2974 42.0235 55.1604 42.1024L49.5014 45.1741L37.9322 51.406L31.8348 54.6792L30.63 55.3262C30.3985 55.4533 30.1604 55.604 29.9175 55.7051L27.8525 54.4909L20.8124 50.3531L11.234 44.7853L5.94635 41.7022L4.42876 40.8266C4.22544 40.7103 4.01012 40.6091 3.81263 40.4833C3.72082 40.4248 3.63427 40.3459 3.58149 40.2491C3.44889 40.0059 3.51793 39.1669 3.51823 38.8644L3.5185 38.6293L3.51755 34.7451L3.51581 33.9489C3.51563 33.8763 3.49575 33.7457 3.51509 33.6826C3.55556 33.5506 3.69507 33.402 3.78267 33.2955L4.28293 32.6921L5.82807 30.8254L8.06354 28.1098L8.71575 27.3332C8.78905 27.2499 8.98948 27.0759 9.02779 26.9819C9.05696 26.9103 9.02773 26.6584 9.02767 26.5721L9.02739 24.9887L9.02836 15.809L9.03304 14.2247C9.03435 13.9942 8.99976 13.6687 9.06741 13.4489C9.09795 13.3497 9.1854 13.2751 9.27041 13.2237L11.8556 11.808L17.6311 8.69025L25.8026 4.27545L32.4 0.705078Z" fill="#17161E"/>
<path d="M32.354 1.66907L54.29 14.4609L52.8066 15.2541C52.5307 15.1441 52.2732 14.9617 52.0196 14.8074L50.7595 14.0544L44.8508 10.5867L35.8384 5.33314L32.5905 3.4613L30.8857 2.45717L32.354 1.66907Z" fill="white"/>
<path d="M4.36768 34.5603L29.582 49.3243L29.5838 54.5432L4.37077 39.7918L4.36768 34.5603Z" fill="white"/>
<path d="M13.5073 11.8629C13.5362 11.8579 13.5651 11.8428 13.594 11.8478C13.6218 11.8526 13.6966 11.9056 13.7242 11.9213L14.162 12.1766L16.705 13.6902L28.9506 20.833L34.4395 24.0444L34.4341 41.5356L10.6671 27.5647L9.85352 27.0859L9.86311 25.4004C9.95633 25.4218 10.0457 25.4877 10.1282 25.5353L10.6501 25.8376L13.7238 27.6534L20.1631 31.4439L28.4223 36.24L31.2122 37.9213C31.2632 37.9511 31.3125 37.9697 31.3721 37.9628C31.4946 37.9488 31.6247 37.8711 31.6965 37.7699C31.7278 37.7259 31.7456 37.6779 31.7551 37.625C31.8141 37.2962 31.764 36.8771 31.7614 36.5378L31.7526 34.1994L31.7636 28.6216L31.7719 27.0639C31.7729 26.8363 31.8052 26.5485 31.7588 26.327C31.7344 26.2112 31.6622 26.1141 31.566 26.0487C31.355 25.9051 31.1093 25.7933 30.8858 25.6693L29.7164 25.0072L26.8159 23.3144L15.9703 16.9324L12.4675 14.8576L10.3263 13.5718L13.5073 11.8629Z" fill="white"/>
<path d="M9.87134 14.2999L30.9233 26.6737L30.915 36.747L9.85645 24.3719L9.87134 14.2999Z" fill="white"/>
<path d="M9.39789 27.8247L34.5361 42.5875L29.8276 48.4422L29.7443 48.4354L4.54932 33.7L9.39789 27.8247Z" fill="white"/>
<path d="M10.597 31.0843C10.6544 31.0706 10.7105 31.0683 10.7689 31.0772C10.9968 31.1116 11.311 31.358 11.5108 31.4773L13.0278 32.3826L19.6269 36.2528L27.6858 40.9176L30.4919 42.5385C30.5565 42.5778 30.6183 42.6223 30.6585 42.6883C30.7089 42.7714 30.7134 42.9672 30.6799 43.0563C30.6011 43.2654 29.5747 44.4683 29.3646 44.5827C29.2944 44.5944 29.2214 44.5991 29.1505 44.5906C29.0656 44.5802 28.9849 44.5312 28.9119 44.4889L23.7907 41.4523L16.4488 37.1715L11.6574 34.3666L9.52701 33.136C9.45354 33.0913 9.38435 33.0345 9.33446 32.9633C9.2417 32.8308 9.26927 32.6855 9.29068 32.5356C9.50058 32.2299 9.77357 31.9497 10.0133 31.6669C10.1618 31.4919 10.3774 31.1579 10.597 31.0843Z" fill="#17161E"/>
<path d="M17.3814 35.9382L22.4067 38.8529L21.9499 39.3791L16.9287 36.4515L17.3814 35.9382Z" fill="white"/>
<path d="M10.8262 32.1077L16.658 35.5026C16.5239 35.6942 16.3454 35.8671 16.1888 36.041L10.3447 32.6005L10.8262 32.1077Z" fill="white"/>
<path d="M23.1527 39.2584L29.6437 43.0416L29.174 43.5437L29.1213 43.5775C28.973 43.5537 28.7487 43.3797 28.615 43.3011L27.1896 42.4548L24.8417 41.0698L22.71 39.8035C22.8285 39.6068 23.0028 39.4322 23.1527 39.2584Z" fill="white"/>
<path d="M54.6099 15.2295L54.6461 15.2336C54.7038 15.3377 54.6759 38.689 54.6688 41.4013L30.4772 54.4533L30.4601 54.4421C30.4591 54.4411 30.4248 54.3946 30.4239 54.3916C30.4033 54.3228 30.4188 54.1765 30.4173 54.0996L30.4116 53.2154L30.4268 49.0035L34.4493 44.0186L35.21 43.0769C35.3035 42.9579 35.3903 42.7736 35.5059 42.6849C35.645 42.5782 35.8342 42.4974 35.9901 42.4149L36.9024 41.9302L39.5749 40.4843L49.5732 35.1155L51.926 33.8501L52.6316 33.4675C52.7757 33.389 52.9377 33.3218 53.057 33.206C53.1403 33.1252 53.2069 33.016 53.2132 32.8971C53.2433 32.3293 53.208 31.7412 53.208 31.1715L53.2084 27.4746L53.2121 15.9632L54.6099 15.2295Z" fill="white"/>
<path d="M51.3769 15.4599L51.4431 15.4429C51.564 15.4753 51.6773 15.5562 51.7851 15.619L52.3797 15.9797L52.3642 32.6257L35.9274 41.494L35.2601 41.8251L35.2573 23.9989L51.3769 15.4599Z" fill="white"/>
<path d="M50.8041 17.5028C50.8415 17.5063 50.8176 17.5029 50.8748 17.5185L50.8973 31.6509L36.8713 39.1866L36.8302 39.2013L36.8002 39.17L36.8088 29.2969L36.8058 26.288C36.8046 25.8425 36.7557 25.345 36.8091 24.9051L50.8041 17.5028Z" fill="#17161E"/>
<path d="M30.0086 2.95105C30.211 3.0405 30.4098 3.17515 30.6034 3.28539L31.8901 4.02292L37.1327 7.05363L46.2074 12.3572L48.5794 13.7454L50.5947 14.9129L34.9788 23.2036L34.7872 23.2954L14.4263 11.3482L30.0086 2.95105Z" fill="white"/>
</svg>
