<svg width="48" height="50" viewBox="0 0 48 50" fill="none" xmlns="http://www.w3.org/2000/svg">
<path d="M19.2541 0.0012091C19.2616 0.00081976 19.269 -0.000232421 19.2765 4.64271e-05C19.4557 0.00677562 19.6526 0.166656 19.7992 0.259638L20.379 0.61547L24.2236 2.96992L31.1305 7.19708L35.7557 10.0369L40.033 12.7121L45.2224 15.9236L46.7735 16.8914C47.0758 17.0754 47.4219 17.2423 47.6988 17.4612C47.8626 17.5908 47.9284 17.7229 47.9504 17.9294C48.0003 18.4004 47.9601 18.9171 47.961 19.3936L47.9635 22.4029L47.9703 32.0672L47.976 36.3147C47.978 36.9902 48.0227 37.6918 47.9847 38.3646C47.9799 38.4506 47.9507 38.518 47.8941 38.5826C47.7739 38.7195 47.5774 38.8139 47.4216 38.9061L46.6181 39.3852L41.2904 42.6442L33.0405 47.6398L30.6104 49.098L29.3252 49.8725C29.1429 49.9726 28.9605 49.9879 28.7582 50C28.6199 49.9803 28.497 49.9535 28.3705 49.8917C28.1274 49.773 27.8937 49.6136 27.6624 49.4726L26.5027 48.7651L23.1346 46.6932L14.4226 41.3563L12.5522 40.1892L3.5728 34.7126L1.45395 33.4351C1.06311 33.2044 0.598406 32.983 0.247049 32.699C0.151222 32.6216 0.0716868 32.5382 0.0365578 32.4172C-0.0157477 32.2369 0.0275842 31.9183 0.0278148 31.7236L0.0281032 29.7618L0.0152928 20.3792L0.00868323 14.5553L0.00824814 12.7053C0.00832677 12.4091 -0.0125398 12.0954 0.0118072 11.8009C0.021284 11.6863 0.064249 11.5624 0.122472 11.4637C0.181503 11.3637 0.267213 11.2784 0.362347 11.2128C0.824564 10.8942 1.3574 10.6293 1.84358 10.3458L4.6208 8.69549L15.4903 2.2073L18.0974 0.640861L18.7802 0.234916C18.9329 0.144658 19.0805 0.0452619 19.2541 0.0012091Z" fill="#17161E"/>
<path d="M46.6518 19.1523C46.6896 19.1558 46.6703 19.1493 46.707 19.1787L46.7315 37.8502L29.3333 48.4522L29.3232 29.4274L46.6518 19.1523Z" fill="#E3FE0F"/>
<path d="M1.2926 13.0198L28.101 29.421L28.1046 48.3078L1.28076 31.8467L1.2926 13.0198Z" fill="#E3FE0F"/>
<path d="M19.2399 1.3999L46.2044 17.9627C46.103 18.0666 45.9231 18.1371 45.7951 18.2124L44.7644 18.817L41.0273 21.0141L28.721 28.3595L1.78662 11.8234C2.00771 11.6544 2.2863 11.5234 2.52734 11.3837L3.54237 10.7747L7.67796 8.31009L19.2399 1.3999Z" fill="#E3FE0F"/>
<path d="M28.148 19.7289L28.1568 19.7263C28.4454 19.6963 28.7476 19.7034 29.0372 19.7095C30.1823 19.7337 31.4592 20.0066 32.3592 20.7609C32.7159 21.0599 32.9878 21.4274 33.024 21.9058C33.0443 22.1734 33.0315 22.451 33.0307 22.7195C33.0299 23.0153 33.0502 23.3374 32.9695 23.6244C32.9192 23.8033 32.8189 23.9603 32.6994 24.1003C31.9687 24.9561 30.534 25.2917 29.4694 25.3798C29.0612 25.4245 28.6172 25.4113 28.2078 25.3785C27.1576 25.2943 25.9741 25.0699 25.1305 24.3935C24.8481 24.1671 24.5999 23.8454 24.5703 23.4713C24.5436 23.1347 24.5629 22.7821 24.5634 22.4439C24.5637 22.2186 24.5371 21.9693 24.5841 21.7489C24.6361 21.5051 24.7657 21.2646 24.9237 21.0739C25.6745 20.1666 27.0297 19.8315 28.148 19.7289Z" fill="#17161E"/>
<path d="M28.3168 20.2857C29.4455 20.1863 30.9464 20.3676 31.8601 21.0903C32.0964 21.2772 32.4213 21.6051 32.4515 21.9179C32.4817 22.2301 32.395 22.5037 32.1944 22.7434C31.5215 23.5474 30.2576 23.816 29.2669 23.8973C28.105 23.9443 26.6586 23.7885 25.7122 23.0485C25.439 22.8349 25.1479 22.5259 25.1182 22.1614C25.098 21.9147 25.2381 21.6105 25.3907 21.4265C26.0654 20.613 27.3278 20.3859 28.3168 20.2857Z" fill="#E3FE0F"/>
<path d="M18.5816 3.41892C19.9138 3.30224 21.6187 3.54857 22.6881 4.39948C23.0428 4.68169 23.363 5.08066 23.4094 5.54765C23.439 5.84644 23.4283 6.1577 23.4295 6.45843C23.4305 6.71997 23.4491 7.02044 23.3814 7.27498C23.3279 7.47623 23.2136 7.66711 23.0812 7.82668C22.3154 8.74978 20.9621 9.03652 19.828 9.14011C18.4138 9.20025 16.8373 9.04504 15.6884 8.12353C15.3425 7.8461 14.9939 7.44535 14.9467 6.98577C14.9239 6.76275 14.933 6.53051 14.9302 6.30612C14.923 5.72112 14.9138 5.23513 15.3207 4.76272C16.124 3.83026 17.4095 3.51795 18.5816 3.41892Z" fill="#17161E"/>
<path d="M18.8719 3.94519L18.8993 3.94209C20.0152 3.86469 21.4959 4.15417 22.3652 4.88886C22.608 5.09399 22.841 5.38373 22.8643 5.7133C22.8841 5.99352 22.7484 6.26542 22.5678 6.47229C21.8054 7.3454 20.557 7.55428 19.4636 7.63814C18.3431 7.66598 17.0429 7.49188 16.1261 6.79192C15.8448 6.5771 15.5078 6.2308 15.4731 5.86135C15.4476 5.58913 15.5957 5.31976 15.7659 5.11946C16.5103 4.24335 17.7925 4.02895 18.8719 3.94519Z" fill="#E3FE0F"/>
<path d="M28.1071 9.31127L28.1449 9.30611C29.4713 9.19631 31.0669 9.4428 32.1235 10.307C32.4872 10.6045 32.8337 11.0133 32.8736 11.5032C32.898 11.8016 32.8785 12.1161 32.8759 12.4159C32.8741 12.6174 32.896 12.8488 32.8471 13.0443C32.7835 13.2989 32.6347 13.5556 32.4618 13.7507C31.6347 14.6847 30.2564 14.9772 29.0661 15.0405C27.8381 15.1308 26.3912 14.8998 25.3387 14.2296C24.9386 13.9749 24.4787 13.5496 24.3795 13.0589L24.3728 13.023L24.3469 12.8589C24.3286 12.647 24.3373 12.4273 24.3356 12.2143C24.3313 11.6417 24.3388 11.1934 24.7276 10.7343C25.5459 9.76832 26.9012 9.42486 28.1071 9.31127Z" fill="#17161E"/>
<path d="M28.368 9.86428L28.3758 9.86344C29.5237 9.7982 30.916 10.0086 31.813 10.7812C32.0598 10.9938 32.2955 11.2732 32.3149 11.6128C32.3327 11.9247 32.1545 12.2222 31.9472 12.4443C31.1906 13.2544 29.9225 13.506 28.8655 13.5437C27.7177 13.5561 26.3434 13.3579 25.4312 12.5986C25.1862 12.3946 24.9319 12.0781 24.908 11.7481C24.8887 11.4807 25.028 11.226 25.1999 11.032C25.9628 10.1708 27.2795 9.93363 28.368 9.86428Z" fill="#E3FE0F"/>
<path d="M19.1067 14.2051L19.1289 14.2027C20.4742 14.0946 22.0794 14.4383 23.1222 15.3302C23.467 15.6251 23.7399 16.0147 23.7687 16.4823C23.7833 16.72 23.7696 16.9673 23.7698 17.2058C23.7699 17.4615 23.7927 17.756 23.7441 18.0076C23.7008 18.2322 23.5369 18.4912 23.3864 18.6578C22.5719 19.5594 21.1213 19.8759 19.9589 19.9328C18.6319 20.0066 16.9097 19.7902 15.8494 18.9196C15.5322 18.6591 15.2572 18.3197 15.2215 17.8947C15.2015 17.6569 15.217 17.4052 15.2198 17.166C15.2265 16.5743 15.2021 16.1007 15.6115 15.6261C16.4625 14.6396 17.8603 14.2884 19.1067 14.2051Z" fill="#17161E"/>
<path d="M18.9213 14.7829L18.9263 14.7815C20.1108 14.6736 21.5943 14.9018 22.5687 15.6208C22.849 15.8275 23.1668 16.1495 23.2159 16.5094C23.2562 16.8048 23.1253 17.058 22.9472 17.2813C22.2936 18.1012 21.0847 18.3628 20.101 18.4711C18.9293 18.5924 17.4249 18.373 16.4604 17.6651C16.1438 17.4327 15.8694 17.1204 15.8186 16.7173C15.7838 16.4408 15.9016 16.1681 16.073 15.9564C16.7122 15.1665 17.9646 14.8765 18.9213 14.7829Z" fill="#E3FE0F"/>
<path d="M10.2005 8.47083C11.543 8.4985 13.0421 8.73978 14.0543 9.70775C14.3318 9.97313 14.5452 10.3349 14.5521 10.7279L14.5461 11.5623C14.5422 12.1534 14.547 12.6025 14.11 13.0495C13.1984 13.982 11.6326 14.2343 10.3898 14.2483C9.08226 14.2546 7.55251 14.0087 6.5553 13.0904C6.25931 12.8178 6.03544 12.5208 6.0216 12.1021L6.013 11.2655C6.01044 10.6757 6.014 10.2399 6.43899 9.7802C7.38456 8.75741 8.88198 8.52854 10.2005 8.47083Z" fill="#17161E"/>
<path d="M9.86979 9.04839C10.9541 8.95053 12.3686 9.17876 13.2745 9.80828C13.5679 10.0121 13.9479 10.3726 13.9973 10.7475C14.0299 10.9953 13.883 11.2989 13.7247 11.4833C13.0471 12.2728 11.74 12.4967 10.76 12.5628C9.73801 12.6234 8.60494 12.5128 7.67331 12.0624C7.46883 11.9635 7.25639 11.8561 7.07928 11.7119C6.8203 11.5009 6.59412 11.2031 6.57006 10.8588C6.55313 10.6159 6.71609 10.3365 6.867 10.1594C7.55411 9.35307 8.8731 9.12131 9.86979 9.04839Z" fill="#E3FE0F"/>
<path d="M37.327 14.652C38.679 14.5443 40.2319 14.8234 41.3143 15.6813C41.6454 15.9436 41.9446 16.3358 41.9889 16.7702C42.0216 17.089 41.9965 17.4338 41.9958 17.7556C41.9952 17.9882 42.0271 18.2801 41.9683 18.5053C41.9104 18.7276 41.7892 18.9413 41.6392 19.114C40.7915 20.0903 39.349 20.3623 38.1252 20.452C36.7368 20.4628 35.0991 20.2987 34.0012 19.3491C33.7139 19.1006 33.4206 18.7256 33.3984 18.3317C33.3836 18.0693 33.3932 17.8004 33.3934 17.5374C33.3938 16.9124 33.3823 16.4539 33.8227 15.9539C34.681 14.9798 36.0987 14.7275 37.327 14.652Z" fill="#17161E"/>
<path d="M37.2944 15.2045L37.3169 15.2019C37.6413 15.173 37.9862 15.1934 38.3101 15.221C39.1895 15.296 40.2085 15.5094 40.9033 16.0919C41.1751 16.3197 41.394 16.6076 41.4189 16.9748C41.4394 17.2775 41.3028 17.5444 41.1084 17.7675C40.4286 18.5481 39.136 18.7904 38.163 18.8558C37.4631 18.9215 36.7221 18.8329 36.0431 18.6638C35.5796 18.5484 35.1142 18.3904 34.7159 18.1193C34.4352 17.9282 34.019 17.5189 33.9733 17.1652C33.9336 16.8581 34.0448 16.5888 34.2417 16.3559C34.9593 15.5073 36.2507 15.2789 37.2944 15.2045Z" fill="#E3FE0F"/>
</svg>
