<svg width="43" height="50" viewBox="0 0 43 50" fill="none" xmlns="http://www.w3.org/2000/svg">
<path d="M13.115 0.010719C12.891 -0.0125888 12.6577 0.0015386 12.4396 0.0587563C12.3139 0.091715 12.1794 0.137602 12.0688 0.206853L10.9017 1.01673L7.03127 3.63571L4.2593 5.47177C3.83224 5.75639 3.38148 6.02979 2.97343 6.3418C2.85168 6.4349 2.76174 6.57689 2.7042 6.71842C2.57878 7.02728 2.58949 7.3302 2.59117 7.65772L2.59555 8.50768L2.59835 10.4612C2.59769 10.5255 2.61848 10.7706 2.59398 10.819C2.58057 10.8455 2.41071 10.9388 2.37316 10.9641L1.38419 11.642C0.982967 11.9146 0.469276 12.1619 0.218136 12.5974C0.113968 12.778 0.0268745 12.9979 0.0134735 13.2075C-0.022049 13.7622 0.0239182 14.3441 0.0236626 14.9022L0.0184669 18.2199L0.0207062 19.2457C0.0221863 19.4539 0.00878143 19.6851 0.0638733 19.8866C0.260025 20.6034 0.727142 20.8929 1.31514 21.2753L2.34431 21.9602C2.38447 21.9891 2.56783 22.1034 2.58001 22.1319C2.58954 22.1543 2.57782 22.2632 2.57746 22.2927L2.57619 22.8194L2.56691 26.5126L2.56426 27.6714C2.56498 27.9595 2.55988 28.2662 2.61069 28.5503C2.82718 29.761 3.55267 30.9569 4.43135 31.7896C4.83792 32.1749 5.28568 32.4595 5.74377 32.7729L7.48743 33.9533L12.1338 37.1186L22.495 44.1751L30.2665 49.4638C30.6612 49.7221 31.0486 49.8786 31.512 49.9584C31.9818 50.0392 32.5998 50.009 33.0409 49.8083C33.2674 49.7052 33.4613 49.501 33.6638 49.3547L34.9662 48.4516L40.8322 44.4148C41.0045 44.2951 41.208 44.2329 41.3985 44.149C41.5824 44.0679 41.7599 43.9646 41.9229 43.846C42.4612 43.4542 42.8493 42.878 42.956 42.2098C43.0149 41.8409 42.988 41.443 42.9888 41.0694L42.9914 39.2209L42.9941 32.3817L42.9947 25.5995L42.9945 23.5598C42.9944 23.1699 43.0174 22.7618 42.9701 22.3745C42.8569 21.448 42.5021 20.5869 41.9646 19.8331C41.6626 19.4094 41.3304 18.9883 40.9148 18.6746L39.5268 17.7233L37.5102 16.351L29.2454 10.7381L19.2296 3.93503L16.072 1.78252L13.8962 0.306634C13.6472 0.148674 13.4052 0.0583065 13.115 0.010719Z" fill="#17161E"/>
<path d="M2.6084 12.9272C2.41887 13.0036 2.22843 13.1652 2.07177 13.2972L2.26374 13.4674L2.60626 13.715L2.6084 12.9272Z" fill="#E3FE0F"/>
<path d="M2.621 11.6439L1.61017 12.3105C1.30088 12.5253 0.797991 12.8043 0.731078 13.2077C0.683632 13.4937 0.798552 13.7383 0.993022 13.9401C1.18591 14.1403 1.44587 14.2951 1.67464 14.4502L2.90969 15.2774L8.48823 19.0349L10.2006 20.1943C10.4738 20.3824 10.7653 20.5618 11.0199 20.7752C11.3289 21.0339 11.6077 21.3505 11.8421 21.6795C12.5187 22.6294 13.0332 23.8666 12.8406 25.0568C12.8298 25.1217 12.8126 25.1832 12.8345 25.2472L12.8755 25.2149C13.1614 24.9799 13.2942 24.5933 13.3211 24.2321C13.4167 22.9495 12.5795 21.5979 11.7215 20.73C11.3729 20.3774 10.9396 20.143 10.5285 19.8755L9.35076 19.0899L3.59228 15.2117L2.462 14.4722C2.14394 14.2636 1.79883 14.0555 1.55365 13.7573C1.43328 13.6109 1.35694 13.4433 1.38471 13.2494C1.46319 12.7024 2.21763 12.3558 2.6241 12.0757L2.621 11.6439Z" fill="#E3FE0F"/>
<path d="M3.36063 28.6067C3.44834 28.9826 3.56698 29.3504 3.73862 29.6956C4.10539 30.4335 4.61266 31.0621 5.25559 31.5702C5.72821 31.9437 6.24935 32.2656 6.74623 32.6051L9.57017 34.527L18.2887 40.4472L27.0065 46.3772L29.666 48.1818C30.1455 48.5027 30.661 48.9493 31.2071 49.1285C31.7958 49.3219 32.3729 49.3204 32.9304 49.0348L32.9897 48.9946C32.9915 48.993 33.031 48.9496 33.0335 48.9426C33.053 48.8881 33.0348 48.7569 33.0354 48.691L33.0454 47.9234C32.6651 48.0362 32.2644 48.0936 31.8689 48.0371C31.5022 47.9847 31.132 47.845 30.8158 47.6517L29.3043 46.6355L26.2757 44.5822L19.3096 39.8622L17.6741 38.7317L9.66374 33.28L5.94541 30.7621C5.51208 30.4643 5.0465 30.1916 4.62765 29.8754C4.15625 29.5196 3.71079 29.0866 3.36063 28.6067Z" fill="#E3FE0F"/>
<path d="M0.70268 14.6356C0.670472 14.927 0.69621 15.255 0.695955 15.5499L0.695189 17.4137L0.696107 18.9173C0.696362 19.1391 0.671849 19.3902 0.7037 19.6069C0.736162 19.8277 0.820402 20.0306 0.981595 20.1856C1.18952 20.3855 1.48658 20.5375 1.72645 20.6994L3.34296 21.7961L8.05866 25.0125L10.6155 26.7731C10.9383 26.6492 11.2659 26.4263 11.5365 26.21C11.613 26.137 11.6819 26.0626 11.7456 25.9781C12.1204 25.481 12.254 24.8232 12.1685 24.2088C12.0384 23.274 11.5811 22.3513 10.949 21.6628C10.5731 21.2534 10.1519 21.011 9.70019 20.7028L8.15482 19.6584L2.91957 16.1309L1.59645 15.2329C1.29593 15.0347 0.990359 14.8539 0.70268 14.6356Z" fill="#E3FE0F"/>
<path d="M8.72856 21.5375C8.55498 21.518 8.34512 21.5091 8.18444 21.5867C8.02059 21.6657 7.88524 21.8388 7.82719 22.0111C7.70295 22.3802 7.84223 22.8477 8.00352 23.1855C8.21883 23.6363 8.56451 24.0103 9.0383 24.1748C9.22808 24.1778 9.38367 24.1543 9.55862 24.0763C9.76593 23.9839 9.88574 23.8283 9.96229 23.6135C10.0883 23.2598 9.98369 22.838 9.81929 22.5142C9.58649 22.0558 9.21351 21.6949 8.72856 21.5375Z" fill="#17161E"/>
<path d="M40.4865 22.9076L37.5337 24.7647L37.5603 45.8042L40.5967 43.6725L40.5904 29.0739L40.5881 25.4109C40.5868 24.5919 40.6562 23.7094 40.4865 22.9076Z" fill="#E3FE0F"/>
<path d="M12.9791 0.682828C12.5064 0.656191 12.2408 0.941023 11.8741 1.19365C12.1239 1.38979 12.4009 1.56119 12.661 1.74393L14.6995 3.14021L19.9088 6.68795L32.9882 15.5735L37.1628 18.3725L38.245 19.1084C38.7002 19.4122 39.1521 19.7089 39.5392 20.1017C40.3145 20.8885 40.9814 21.9152 41.2004 23.0192C41.264 23.3399 41.2586 23.6577 41.2593 23.9827L41.2608 25.1544L41.2615 28.9335L41.2631 43.4268L41.5424 43.2402C41.9486 42.9531 42.245 42.5181 42.3281 42.0184C42.378 41.7183 42.3493 41.3905 42.3482 41.0859L42.3514 39.6417L42.3436 33.6838L42.3394 26.0768L42.3381 23.8221C42.3377 23.4175 42.3644 22.9866 42.3152 22.586C42.2081 21.7135 41.8731 20.8827 41.3643 20.1706C41.144 19.8623 40.8664 19.5149 40.5673 19.2791C40.1289 18.9335 39.6305 18.6337 39.1674 18.3212L36.814 16.7247L30.0417 12.125L18.0082 3.95103L15.2145 2.04737L13.5778 0.920905C13.3816 0.794027 13.211 0.71956 12.9791 0.682828Z" fill="#E3FE0F"/>
<path d="M5.26283 5.72827C5.11111 5.70314 4.76692 6.00931 4.63187 6.10774C4.93973 6.15669 5.26135 6.24079 5.52834 6.40905L6.44789 7.05163L7.58225 7.82003L12.579 11.2183L14.8348 12.7232L23.7491 18.7874L29.7991 22.9088C30.4746 23.3854 31.2499 23.8099 31.8382 24.3941C32.7024 25.2522 33.3753 26.3545 33.6341 27.5602C33.7293 28.0039 33.7302 28.4439 33.7308 28.8949L33.7332 30.1208L33.7385 33.6794L33.7301 48.4226L36.2201 46.7202L36.8555 46.2793L36.8516 25.2326L34.7879 26.5284L34.3358 26.8174C34.2517 26.8718 34.1509 26.9521 34.0513 26.971C33.9272 26.9946 33.8093 26.9121 33.7458 26.81C33.6382 26.637 33.5977 26.355 33.5252 26.1578C33.3748 25.7485 33.1709 25.3611 32.9329 24.9976C32.6754 24.6045 32.3604 24.2327 32.0004 23.9311C31.7193 23.6956 31.4086 23.492 31.1072 23.2844L29.827 22.402L25.3715 19.3513L17.4088 13.9479L12.2433 10.4366L7.77713 7.41544L6.03429 6.2488L5.26283 5.72827Z" fill="#E3FE0F"/>
<path d="M8.22274 3.69519L5.85775 5.26486L8.12244 6.79871L11.9767 9.41292L26.0722 18.9897L30.6222 22.101L31.7026 22.8465C31.9575 23.022 32.2256 23.1941 32.4551 23.4032C33.007 23.9062 33.4805 24.5211 33.831 25.1843C33.9172 25.3474 33.9926 25.5158 34.0562 25.6892C34.0957 25.7967 34.1333 25.9846 34.2132 26.0642L34.2741 26.0344L36.7227 24.5007C36.4191 23.5638 35.8708 22.6824 35.1331 22.0346C34.8187 21.7586 34.4306 21.5354 34.0839 21.3015L32.3356 20.1057L25.6617 15.5485L19.6034 11.4068L14.2313 7.77362L8.22274 3.69519Z" fill="#E3FE0F"/>
<path d="M11.2612 1.64093C10.8936 1.83792 10.5519 2.10463 10.207 2.33962L8.86761 3.25694L12.075 5.45138L15.5666 7.82176L27.9301 16.2456L33.0337 19.7427L34.717 20.8924C35.0376 21.1143 35.3811 21.3312 35.672 21.5915C36.4219 22.2624 36.9351 23.1515 37.3086 24.0812L37.5772 23.9162C37.8338 23.7602 40.1679 22.3302 40.1934 22.236C39.8654 21.5123 39.3752 20.8452 38.7663 20.3384C38.3681 20.007 37.9163 19.7323 37.4874 19.4434L35.414 18.0475L29.6957 14.1765L16.9759 5.55301L13.2775 3.02993L11.2612 1.64093Z" fill="#E3FE0F"/>
<path d="M4.39816 6.72903C4.20843 6.70763 4.01391 6.70571 3.82698 6.75006C3.64143 6.79416 3.49191 6.85877 3.39273 7.02941C3.35212 7.09929 3.33474 7.1729 3.32597 7.25292C3.29071 7.57439 3.31456 7.92424 3.3142 8.24809L3.31451 10.2896L3.31441 13.4334L3.31415 13.988C3.31415 14.0316 3.30054 14.151 3.3141 14.1878C3.33907 14.2558 11.0425 19.3106 11.741 19.832C11.935 19.9768 12.1111 20.1457 12.2808 20.3188C13.0552 21.1086 13.6844 22.1606 13.9392 23.2494C14.1018 23.9437 14.1039 24.7019 13.721 25.3246C13.604 25.5149 13.4602 25.6982 13.2915 25.844C12.9828 26.1109 12.5857 26.3251 12.2451 26.551L11.4802 27.0767C11.2901 27.2083 11.0647 27.3829 10.8352 27.4309C10.6577 27.468 10.4515 27.4534 10.2864 27.3741C10.0628 27.2666 9.84867 27.0846 9.64432 26.9416L8.61448 26.2388L3.27358 22.6056L3.27287 24.9579C3.27089 25.5197 3.23516 26.1097 3.3458 26.6625C3.52717 27.5694 4.03546 28.3781 4.69893 29.002C4.9777 29.2641 5.29712 29.4661 5.61242 29.6788L6.54339 30.3195L10.0097 32.682L22.4698 41.1409L28.5087 45.2435L30.1136 46.3306C30.479 46.5852 30.86 46.9055 31.2562 47.1048C31.8592 47.4082 32.4175 47.3523 33.0332 47.1473L33.0483 43.3623L33.0458 35.3587L33.0494 30.6434L33.0523 29.0679C33.0522 28.7545 33.0685 28.4297 33.0299 28.1189C32.9286 27.305 32.618 26.5575 32.1749 25.8762C31.8557 25.3856 31.467 24.9419 31.0016 24.5885L29.5274 23.5674L26.095 21.2219L16.294 14.5737L8.27212 9.13988L6.2445 7.76281C5.90128 7.52415 5.56325 7.24812 5.20962 7.02941C4.95986 6.87495 4.68247 6.78842 4.39816 6.72903Z" fill="#E3FE0F"/>
</svg>
