<svg width="38" height="51" viewBox="0 0 38 51" fill="none" xmlns="http://www.w3.org/2000/svg">
<path d="M21.7784 0.656138C21.8935 0.635724 22.0278 0.642181 22.1454 0.641522C22.63 0.638807 23.1256 0.733905 23.5697 0.932459C23.8145 1.0419 24.0385 1.21169 24.2654 1.35426L25.5839 2.18562L27.1255 3.15131L27.9904 3.68351C28.1681 3.80542 28.3365 3.9471 28.4881 4.10081C28.9546 4.57398 29.2901 5.20866 29.4315 5.85983C29.5391 6.35566 29.5281 6.86155 29.5262 7.36572L29.5123 9.04767L29.5015 12.749L29.5016 14.8685C29.5038 14.9532 29.5519 14.9568 29.617 14.9933L31.3964 16.0565L35.3256 18.3985L37.4217 19.6568C37.6 19.7725 37.8125 19.8834 37.9643 20.0323C37.9871 20.0808 37.9977 20.1121 37.9996 20.1666L38 21.8799L37.9808 25.926L37.9644 37.0345C37.5455 37.391 37.0488 37.6823 36.5794 37.9642L35.1841 38.8057L31.159 41.2459L22.4311 46.5256L16.0363 50.38L15.6265 50.6411L0.307964 41.4784C0.199478 41.4035 0.0356813 41.2654 0.0174708 41.126C-0.000205451 40.9903 0.0104293 40.8361 0.0103322 40.6983L0.0112062 39.9045L0.00955525 37.3009L0.00970085 28.0827L0.00202833 25.3826L0.00163968 24.7703C0.00183392 24.7052 -0.0075384 24.5599 0.0164994 24.5016C0.0413142 24.4413 0.149994 24.3673 0.202343 24.3318L2.52784 22.8946L6.90675 20.1635L8.14385 19.3931C8.186 19.3663 8.39481 19.2557 8.41297 19.2219C8.42409 19.2013 8.41375 19.0461 8.41385 19.0146L8.41657 18.2327L8.41696 14.6088C8.41666 13.9267 8.38306 13.224 8.43686 12.5449C8.57847 10.7589 9.32243 9.11446 10.4047 7.71541C10.8132 7.18724 11.3195 6.69092 11.8536 6.29295C12.4011 5.88506 13.015 5.56201 13.5987 5.20981L16.4988 3.4453L19.2359 1.78479C19.6713 1.51996 20.1087 1.19882 20.5652 0.979654C20.9495 0.795135 21.359 0.708574 21.7784 0.656138Z" fill="#17161E"/>
<path d="M28.964 17.5833C28.992 17.5885 28.9762 17.583 29.0081 17.6071L29.0108 19.2316L27.026 20.4758L26.9704 20.4566L26.9678 18.8379L28.964 17.5833Z" fill="white"/>
<path d="M15.105 25.8477L15.1181 27.6618L12.7212 29.1535C12.6866 29.1495 12.7048 29.1556 12.6695 29.1281L12.6665 27.3968L15.105 25.8477Z" fill="white"/>
<path d="M23.2922 17.1699L26.1503 18.8983L26.144 20.4757L23.29 18.8021L23.2922 17.1699Z" fill="white"/>
<path d="M8.98926 25.4344L11.8466 27.3834L11.8495 29.1534L8.99321 27.2627L8.98926 25.4344Z" fill="white"/>
<path d="M8.53864 20.0626C8.55383 20.068 8.56688 20.0781 8.58042 20.0868L8.57148 22.6626L3.3357 25.8477C3.23448 25.8477 2.22672 25.2117 2.06518 25.1134L1.22559 24.595C1.48017 24.3913 1.79038 24.2299 2.06881 24.0603L3.61408 23.1156L8.53864 20.0626Z" fill="white"/>
<path d="M22.8263 12.6245C22.8619 12.628 22.8433 12.6223 22.8794 12.6483L22.8817 14.9259L15.585 19.2361L15.529 19.2229L15.5269 16.9167L22.8263 12.6245Z" fill="white"/>
<path d="M22.8372 8.49231L22.8785 8.50537L22.8817 11.5825L15.5639 15.9303L15.5269 15.9064C15.5284 15.3261 15.5294 14.7699 15.6866 14.2054C15.931 13.3279 16.4421 12.5157 17.1207 11.8922C17.3824 11.6518 17.7007 11.4739 18.0094 11.2974L18.9925 10.7287L22.8372 8.49231Z" fill="white"/>
<path d="M25.4663 6.8502L25.572 6.83978C25.7078 6.83523 25.7844 6.8667 25.8817 6.96163C26.0104 7.08715 26.1026 7.27458 26.1244 7.45099C26.1686 7.80979 26.1425 8.19795 26.1433 8.56032L26.1464 10.6075L26.148 17.9964L24.7423 17.1795L23.3135 16.3432C23.2713 16.1855 23.2991 15.9443 23.2981 15.7778L23.3011 14.2193L23.3008 8.1058L24.4626 7.41174C24.7879 7.2159 25.1139 6.99496 25.4663 6.8502Z" fill="white"/>
<path d="M0.826546 25.4344L2.85428 26.6793L2.85991 39.3848C2.80496 39.454 2.70937 39.5036 2.63686 39.5523L2.11411 39.8926L0.816895 40.7236L0.826546 25.4344Z" fill="white"/>
<path d="M37.1695 20.889C37.194 21.0293 37.1784 21.2022 37.1769 21.346L37.1682 22.1897L37.1644 25.0211L37.1505 36.1782C37.0635 36.1797 36.0623 35.5449 35.8989 35.4464C35.6433 35.3318 35.3785 35.136 35.1401 34.984L35.144 22.1129L37.1695 20.889Z" fill="white"/>
<path d="M3.14466 39.9099C3.16676 39.9058 3.18863 39.8951 3.21098 39.8977C3.22434 39.8992 3.27873 39.9396 3.29099 39.9472L3.62127 40.1522L5.49409 41.3253L12.021 45.3918L15.1181 47.3393L15.1135 49.8146L13.9199 49.0715L1.22559 41.1554L3.14466 39.9099Z" fill="white"/>
<path d="M35.0705 35.765C35.2929 35.8619 35.5105 36.0178 35.7187 36.1439C36.2029 36.4369 36.679 36.738 37.1829 36.9963L17.2848 49.01L15.9355 49.8145L15.94 47.4262L35.0705 35.765Z" fill="white"/>
<path d="M22.6439 15.9302C22.666 15.9371 22.6508 15.9314 22.6864 15.9547C22.6886 16.1453 22.7145 16.3436 22.6153 16.5126C22.5837 16.5664 22.5547 16.6099 22.548 16.6736C22.5103 17.0301 22.5459 17.4333 22.5448 17.794L22.5431 18.6363C22.5432 18.7607 22.5289 18.9066 22.551 19.0287C22.5644 19.1029 22.5957 19.1447 22.651 19.1923C22.9427 19.4429 23.3624 19.6282 23.6936 19.8257L25.7419 21.0822L17.7617 26.009L15.9774 27.0873L15.9504 25.2297C15.823 25.0968 15.6797 25.0034 15.5269 24.9038L15.5315 20.3497C15.5351 20.3352 15.5402 20.3201 15.5501 20.309C15.6153 20.2361 15.7956 20.155 15.8827 20.1004L17.1985 19.2875L22.6439 15.9302Z" fill="white"/>
<path d="M25.9817 3.95576C26.0678 3.94155 26.1683 3.94858 26.2557 3.94808C26.9166 3.94425 27.5857 4.20849 28.0533 4.67697C28.5363 5.16079 28.8216 5.84041 28.9428 6.50731C29.0376 7.02899 29.0062 7.55966 29.0037 8.08766L28.9945 10.0364L28.987 16.6068L27.0807 17.8224L27.0714 15.3828L27.0703 10.5722L27.0722 8.82949C27.0733 8.23916 27.1648 7.54164 26.9514 6.98371C26.8204 6.64117 26.6218 6.37336 26.2786 6.22298C25.9581 6.08252 25.6183 6.11249 25.3001 6.24169C25.0208 6.35514 24.7647 6.54575 24.5075 6.70268L23.2246 7.47391L19.4334 9.75974L18.0385 10.5992C17.6033 10.8613 17.1637 11.096 16.7821 11.4378C16.0837 12.0634 15.5916 12.8428 15.2411 13.7057C15.1016 14.1111 14.9882 14.5118 14.9435 14.9396C14.8934 15.4176 14.907 15.9017 14.9066 16.3817L14.9071 18.4067L14.9244 25.1239L13.1015 26.2608L13.091 26.2147C13.055 25.987 13.0917 25.6828 13.0924 25.4467L13.0935 23.5522L13.0963 17.9161L13.0923 16.1968C13.0896 15.5018 13.0897 14.8356 13.2293 14.15C13.4677 12.9784 14.011 11.8992 14.7457 10.9615C15.1382 10.4607 15.6406 9.94209 16.153 9.56447C16.5842 9.24666 17.0893 8.99357 17.5501 8.71735L20.2468 7.08701L23.2023 5.29501L24.2398 4.66727C24.4745 4.52473 24.7061 4.3702 24.9517 4.24725C25.2863 4.07961 25.6127 4.00115 25.9817 3.95576Z" fill="white"/>
<path d="M22.1036 1.46749C22.4327 1.46623 22.7819 1.51225 23.091 1.62966C23.4415 1.76279 23.7713 2.00553 24.0907 2.2022L25.7419 3.21242C25.3063 3.29101 24.8979 3.38008 24.4948 3.57075C24.1403 3.7384 23.803 3.98183 23.4646 4.18274L21.0542 5.63171L17.6674 7.68173L16.511 8.37466C16.1452 8.58894 15.7766 8.79277 15.4362 9.04751C15.1281 9.27819 14.8401 9.55345 14.567 9.82419C13.4918 10.8902 12.669 12.3197 12.3092 13.788C12.0627 14.7945 12.091 15.776 12.092 16.8017L12.094 19.2283L12.09 26.146L12.0925 26.6741L8.98969 24.8185L8.99161 17.4384L8.99117 14.6644C8.99117 13.6306 8.95549 12.6146 9.19253 11.5998C9.4991 10.2875 10.1885 9.03494 11.0783 8.02522C11.4345 7.62105 11.8407 7.23872 12.2837 6.93038C12.8146 6.56077 13.4033 6.24241 13.961 5.91197L16.9763 4.11645L19.8927 2.36505C20.2432 2.15672 20.5788 1.89174 20.9485 1.72331C21.3182 1.55488 21.7013 1.49358 22.1036 1.46749Z" fill="white"/>
<path d="M29.5817 15.9302L37.1826 20.3671L15.4965 33.2856L8.53279 29.2007L3.67725 26.3713L8.27366 23.6243L8.27528 24.5017C8.2019 24.5609 8.13622 24.6176 8.10353 24.7082C8.04079 24.8822 8.08203 25.1895 8.08193 25.3775L8.07987 26.9906C8.07982 27.1351 8.0406 27.4502 8.1105 27.5739C8.14069 27.6273 8.18683 27.6669 8.23724 27.7012C8.43005 27.8322 8.6563 27.9352 8.85844 28.0559L11.4475 29.5808C11.6898 29.7201 12.0086 29.9669 12.2759 30.03C12.5012 29.9415 12.7012 29.8034 12.9051 29.6758L13.5818 29.2676L17.2815 27.0276L26.4643 21.5674L28.7153 20.2199C29.0066 20.045 29.3945 19.8692 29.6447 19.6444C29.7498 19.55 29.7675 19.4604 29.7701 19.324L29.7738 17.5868C29.7738 17.3198 29.8112 16.9823 29.7566 16.724C29.7337 16.6161 29.6783 16.5496 29.6015 16.4725L29.5798 16.4511L29.5817 15.9302Z" fill="white"/>
<path d="M15.6939 30.3937C15.8281 30.3889 15.9604 30.4131 16.0816 30.4698C16.178 30.5149 16.3015 30.6099 16.3324 30.7137C16.3561 30.7933 16.345 30.8893 16.2985 30.9599C16.1867 31.1299 15.9784 31.1853 15.787 31.2195C15.5982 31.2215 15.3996 31.1881 15.2496 31.0678C15.1758 31.0086 15.1291 30.9302 15.1202 30.8375C15.1114 30.7448 15.1396 30.6618 15.2022 30.591C15.3269 30.4501 15.5139 30.4132 15.6939 30.3937Z" fill="#17161E"/>
<path d="M32.4595 19.6627C32.6925 19.6349 32.9159 19.6443 33.1333 19.7478C33.2719 19.8137 33.4273 19.9231 33.4788 20.0883C33.5206 20.2221 33.5147 20.3565 33.4511 20.4806C33.3401 20.6972 33.1471 20.7956 32.9431 20.868C32.7078 20.9136 32.4543 20.8867 32.2386 20.7696C32.0986 20.6936 31.9405 20.5577 31.8934 20.386C31.8626 20.2737 31.8588 20.1587 31.9137 20.0557C32.0307 19.8366 32.2472 19.7282 32.4595 19.6627Z" fill="#17161E"/>
<path d="M3.26855 27.0874L15.118 34.187L15.1002 46.4716L15.0551 46.5089L3.29017 39.4786L3.26855 27.0874Z" fill="white"/>
<path d="M34.6736 22.5419L34.7146 22.545C34.7385 22.6455 34.7281 22.7565 34.7283 22.8598L34.7288 23.4654L34.7303 25.6449L34.7312 35.098L16.0003 46.5088L15.9391 46.4953L15.9355 34.036C16.0235 33.9397 16.1896 33.8621 16.3029 33.7912L17.0937 33.2955L19.8264 31.608L28.5904 26.2225L34.6736 22.5419Z" fill="white"/>
<path d="M26.3295 28.7538L26.6973 28.7402C27.2082 28.7553 27.6831 28.9965 28.0309 29.3956C28.8961 30.3882 28.6225 32.0152 28.2263 33.1617C28.0889 33.5594 27.8557 33.9725 27.7736 34.3844C27.7161 34.6727 27.7447 35.0361 27.7429 35.3332L27.7285 37.4113L23.9842 39.886C23.7969 40.0188 23.5409 40.2434 23.3258 40.302C23.2364 40.3263 23.1441 40.2963 23.0708 40.24C22.9971 40.1834 22.9461 40.1042 22.9255 40.0093C22.8812 39.8052 22.9119 39.5384 22.9119 39.3267L22.9135 37.5284C22.9132 37.2504 22.9395 36.9355 22.899 36.6611C22.8739 36.4907 22.5532 36.2226 22.4537 36.0599C22.261 35.7446 22.1549 35.3847 22.1014 35.0148C21.9021 33.6373 22.5385 31.995 23.2959 30.9076C24.053 29.8206 25.0428 28.9546 26.3295 28.7538Z" fill="#17161E"/>
<path d="M26.5239 29.5778L26.8048 29.5667C27.1465 29.5673 27.4651 29.7129 27.7037 29.9483C28.5125 30.746 28.1565 32.2084 27.7945 33.1358C27.633 33.5496 27.3837 33.9781 27.307 34.4168C27.248 34.7538 27.2724 35.1163 27.2705 35.4578L27.2627 37.1437L23.8972 39.1837L23.4018 39.484L23.4029 37.709C23.4024 37.4017 23.4341 37.053 23.3863 36.7504C23.3682 36.6358 23.3284 36.5161 23.2753 36.4119C23.1504 36.1667 22.942 35.9866 22.7813 35.7668C22.6473 35.5836 22.5553 35.3376 22.5167 35.1159C22.3045 33.8985 22.9004 32.5101 23.6072 31.5349C24.3076 30.5683 25.3045 29.7865 26.5239 29.5778Z" fill="white"/>
</svg>
