<svg width="60" height="50" viewBox="0 0 60 50" fill="none" xmlns="http://www.w3.org/2000/svg">
<path d="M21.115 0.010719C20.891 -0.0125888 20.6577 0.0015386 20.4396 0.0587563C20.3139 0.091715 20.1794 0.137602 20.0688 0.206853L18.9017 1.01673L15.0313 3.63571L12.2593 5.47177C11.8322 5.75639 11.3815 6.02979 10.9734 6.3418C10.8517 6.4349 10.7617 6.57689 10.7042 6.71842C10.5788 7.02728 10.5895 7.3302 10.5912 7.65772L10.5956 8.50768L10.5984 10.4612C10.5977 10.5255 10.6185 10.7706 10.594 10.819C10.5806 10.8455 10.4107 10.9388 10.3732 10.9641L9.38419 11.642C8.98297 11.9146 8.46928 12.1619 8.21814 12.5974C8.11397 12.778 8.02687 12.9979 8.01347 13.2075C7.97795 13.7622 8.02392 14.3441 8.02366 14.9022L8.01847 18.2199L8.02071 19.2457C8.02219 19.4539 8.00878 19.6851 8.06387 19.8866C8.26003 20.6034 8.72714 20.8929 9.31514 21.2753L10.3443 21.9602C10.3845 21.9891 10.5678 22.1034 10.58 22.1319C10.5895 22.1543 10.5778 22.2632 10.5775 22.2927L10.5762 22.8194L10.5669 26.5126L10.5643 27.6714C10.565 27.9595 10.5599 28.2662 10.6107 28.5503C10.8272 29.761 11.5527 30.9569 12.4313 31.7896C12.8379 32.1749 13.2857 32.4595 13.7438 32.7729L15.4874 33.9533L20.1338 37.1186L30.495 44.1751L38.2665 49.4638C38.6612 49.7221 39.0486 49.8786 39.512 49.9584C39.9818 50.0392 40.5998 50.009 41.0409 49.8083C41.2674 49.7052 41.4613 49.501 41.6638 49.3547L42.9662 48.4516L48.8322 44.4148C49.0045 44.2951 49.208 44.2329 49.3985 44.149C49.5824 44.0679 49.7599 43.9646 49.9229 43.846C50.4612 43.4542 50.8493 42.878 50.956 42.2098C51.0149 41.8409 50.988 41.443 50.9888 41.0694L50.9914 39.2209L50.9941 32.3817L50.9947 25.5995L50.9945 23.5598C50.9944 23.1699 51.0174 22.7618 50.9701 22.3745C50.8569 21.448 50.5021 20.5869 49.9646 19.8331C49.6626 19.4094 49.3304 18.9883 48.9148 18.6746L47.5268 17.7233L45.5102 16.351L37.2454 10.7381L27.2296 3.93503L24.072 1.78252L21.8962 0.306634C21.6472 0.148674 21.4052 0.0583065 21.115 0.010719Z" fill="#17161E"/>
<path d="M10.6084 12.9272C10.4189 13.0036 10.2284 13.1652 10.0718 13.2972L10.2637 13.4674L10.6063 13.715L10.6084 12.9272Z" fill="#E3FE0F"/>
<path d="M10.621 11.6439L9.61017 12.3105C9.30088 12.5253 8.79799 12.8043 8.73108 13.2077C8.68363 13.4937 8.79855 13.7383 8.99302 13.9401C9.18591 14.1403 9.44587 14.2951 9.67464 14.4502L10.9097 15.2774L16.4882 19.0349L18.2006 20.1943C18.4738 20.3824 18.7653 20.5618 19.0199 20.7752C19.3289 21.0339 19.6077 21.3505 19.8421 21.6795C20.5187 22.6294 21.0332 23.8666 20.8406 25.0568C20.8298 25.1217 20.8126 25.1832 20.8345 25.2472L20.8755 25.2149C21.1614 24.9799 21.2942 24.5933 21.3211 24.2321C21.4167 22.9495 20.5795 21.5979 19.7215 20.73C19.3729 20.3774 18.9396 20.143 18.5285 19.8755L17.3508 19.0899L11.5923 15.2117L10.462 14.4722C10.1439 14.2636 9.79883 14.0555 9.55365 13.7573C9.43328 13.6109 9.35694 13.4433 9.38471 13.2494C9.46319 12.7024 10.2176 12.3558 10.6241 12.0757L10.621 11.6439Z" fill="#E3FE0F"/>
<path d="M11.3606 28.6067C11.4483 28.9826 11.567 29.3504 11.7386 29.6956C12.1054 30.4335 12.6127 31.0621 13.2556 31.5702C13.7282 31.9437 14.2493 32.2656 14.7462 32.6051L17.5702 34.527L26.2887 40.4472L35.0065 46.3772L37.666 48.1818C38.1455 48.5027 38.661 48.9493 39.2071 49.1285C39.7958 49.3219 40.3729 49.3204 40.9304 49.0348L40.9897 48.9946C40.9915 48.993 41.031 48.9496 41.0335 48.9426C41.053 48.8881 41.0348 48.7569 41.0354 48.691L41.0454 47.9234C40.6651 48.0362 40.2644 48.0936 39.8689 48.0371C39.5022 47.9847 39.132 47.845 38.8158 47.6517L37.3043 46.6355L34.2757 44.5822L27.3096 39.8622L25.6741 38.7317L17.6637 33.28L13.9454 30.7621C13.5121 30.4643 13.0465 30.1916 12.6276 29.8754C12.1562 29.5196 11.7108 29.0866 11.3606 28.6067Z" fill="#E3FE0F"/>
<path d="M8.70268 14.6356C8.67047 14.927 8.69621 15.255 8.69596 15.5499L8.69519 17.4137L8.69611 18.9173C8.69636 19.1391 8.67185 19.3902 8.7037 19.6069C8.73616 19.8277 8.8204 20.0306 8.9816 20.1856C9.18952 20.3855 9.48658 20.5375 9.72645 20.6994L11.343 21.7961L16.0587 25.0125L18.6155 26.7731C18.9383 26.6492 19.2659 26.4263 19.5365 26.21C19.613 26.137 19.6819 26.0626 19.7456 25.9781C20.1204 25.481 20.254 24.8232 20.1685 24.2088C20.0384 23.274 19.5811 22.3513 18.949 21.6628C18.5731 21.2534 18.1519 21.011 17.7002 20.7028L16.1548 19.6584L10.9196 16.1309L9.59645 15.2329C9.29593 15.0347 8.99036 14.8539 8.70268 14.6356Z" fill="#E3FE0F"/>
<path d="M16.7286 21.5375C16.555 21.518 16.3451 21.5091 16.1844 21.5867C16.0206 21.6657 15.8852 21.8388 15.8272 22.0111C15.7029 22.3802 15.8422 22.8477 16.0035 23.1855C16.2188 23.6363 16.5645 24.0103 17.0383 24.1748C17.2281 24.1778 17.3837 24.1543 17.5586 24.0763C17.7659 23.9839 17.8857 23.8283 17.9623 23.6135C18.0883 23.2598 17.9837 22.838 17.8193 22.5142C17.5865 22.0558 17.2135 21.6949 16.7286 21.5375Z" fill="#17161E"/>
<path d="M48.4865 22.9076L45.5337 24.7647L45.5603 45.8042L48.5967 43.6725L48.5904 29.0739L48.5881 25.4109C48.5868 24.5919 48.6562 23.7094 48.4865 22.9076Z" fill="#E3FE0F"/>
<path d="M20.9791 0.682828C20.5064 0.656191 20.2408 0.941023 19.8741 1.19365C20.1239 1.38979 20.4009 1.56119 20.661 1.74393L22.6995 3.14021L27.9088 6.68795L40.9882 15.5735L45.1628 18.3725L46.245 19.1084C46.7002 19.4122 47.1521 19.7089 47.5392 20.1017C48.3145 20.8885 48.9814 21.9152 49.2004 23.0192C49.264 23.3399 49.2586 23.6577 49.2593 23.9827L49.2608 25.1544L49.2615 28.9335L49.2631 43.4268L49.5424 43.2402C49.9486 42.9531 50.245 42.5181 50.3281 42.0184C50.378 41.7183 50.3493 41.3905 50.3482 41.0859L50.3514 39.6417L50.3436 33.6838L50.3394 26.0768L50.3381 23.8221C50.3377 23.4175 50.3644 22.9866 50.3152 22.586C50.2081 21.7135 49.8731 20.8827 49.3643 20.1706C49.144 19.8623 48.8664 19.5149 48.5673 19.2791C48.1289 18.9335 47.6305 18.6337 47.1674 18.3212L44.814 16.7247L38.0417 12.125L26.0082 3.95103L23.2145 2.04737L21.5778 0.920905C21.3816 0.794027 21.211 0.71956 20.9791 0.682828Z" fill="#E3FE0F"/>
<path d="M13.2628 5.72827C13.1111 5.70314 12.7669 6.00931 12.6319 6.10774C12.9397 6.15669 13.2614 6.24079 13.5283 6.40905L14.4479 7.05163L15.5823 7.82003L20.579 11.2183L22.8348 12.7232L31.7491 18.7874L37.7991 22.9088C38.4746 23.3854 39.2499 23.8099 39.8382 24.3941C40.7024 25.2522 41.3753 26.3545 41.6341 27.5602C41.7293 28.0039 41.7302 28.4439 41.7308 28.8949L41.7332 30.1208L41.7385 33.6794L41.7301 48.4226L44.2201 46.7202L44.8555 46.2793L44.8516 25.2326L42.7879 26.5284L42.3358 26.8174C42.2517 26.8718 42.1509 26.9521 42.0513 26.971C41.9272 26.9946 41.8093 26.9121 41.7458 26.81C41.6382 26.637 41.5977 26.355 41.5252 26.1578C41.3748 25.7485 41.1709 25.3611 40.9329 24.9976C40.6754 24.6045 40.3604 24.2327 40.0004 23.9311C39.7193 23.6956 39.4086 23.492 39.1072 23.2844L37.827 22.402L33.3715 19.3513L25.4088 13.9479L20.2433 10.4366L15.7771 7.41544L14.0343 6.2488L13.2628 5.72827Z" fill="#E3FE0F"/>
<path d="M16.2227 3.69519L13.8578 5.26486L16.1224 6.79871L19.9767 9.41292L34.0722 18.9897L38.6222 22.101L39.7026 22.8465C39.9575 23.022 40.2256 23.1941 40.4551 23.4032C41.007 23.9062 41.4805 24.5211 41.831 25.1843C41.9172 25.3474 41.9926 25.5158 42.0562 25.6892C42.0957 25.7967 42.1333 25.9846 42.2132 26.0642L42.2741 26.0344L44.7227 24.5007C44.4191 23.5638 43.8708 22.6824 43.1331 22.0346C42.8187 21.7586 42.4306 21.5354 42.0839 21.3015L40.3356 20.1057L33.6617 15.5485L27.6034 11.4068L22.2313 7.77362L16.2227 3.69519Z" fill="#E3FE0F"/>
<path d="M19.2612 1.64093C18.8936 1.83792 18.5519 2.10463 18.207 2.33962L16.8676 3.25694L20.075 5.45138L23.5666 7.82176L35.9301 16.2456L41.0337 19.7427L42.717 20.8924C43.0376 21.1143 43.3811 21.3312 43.672 21.5915C44.4219 22.2624 44.9351 23.1515 45.3086 24.0812L45.5772 23.9162C45.8338 23.7602 48.1679 22.3302 48.1934 22.236C47.8654 21.5123 47.3752 20.8452 46.7663 20.3384C46.3681 20.007 45.9163 19.7323 45.4874 19.4434L43.414 18.0475L37.6957 14.1765L24.9759 5.55301L21.2775 3.02993L19.2612 1.64093Z" fill="#E3FE0F"/>
<path d="M12.3982 6.72903C12.2084 6.70763 12.0139 6.70571 11.827 6.75006C11.6414 6.79416 11.4919 6.85877 11.3927 7.02941C11.3521 7.09929 11.3347 7.1729 11.326 7.25292C11.2907 7.57439 11.3146 7.92424 11.3142 8.24809L11.3145 10.2896L11.3144 13.4334L11.3142 13.988C11.3142 14.0316 11.3005 14.151 11.3141 14.1878C11.3391 14.2558 19.0425 19.3106 19.741 19.832C19.935 19.9768 20.1111 20.1457 20.2808 20.3188C21.0552 21.1086 21.6844 22.1606 21.9392 23.2494C22.1018 23.9437 22.1039 24.7019 21.721 25.3246C21.604 25.5149 21.4602 25.6982 21.2915 25.844C20.9828 26.1109 20.5857 26.3251 20.2451 26.551L19.4802 27.0767C19.2901 27.2083 19.0647 27.3829 18.8352 27.4309C18.6577 27.468 18.4515 27.4534 18.2864 27.3741C18.0628 27.2666 17.8487 27.0846 17.6443 26.9416L16.6145 26.2388L11.2736 22.6056L11.2729 24.9579C11.2709 25.5197 11.2352 26.1097 11.3458 26.6625C11.5272 27.5694 12.0355 28.3781 12.6989 29.002C12.9777 29.2641 13.2971 29.4661 13.6124 29.6788L14.5434 30.3195L18.0097 32.682L30.4698 41.1409L36.5087 45.2435L38.1136 46.3306C38.479 46.5852 38.86 46.9055 39.2562 47.1048C39.8592 47.4082 40.4175 47.3523 41.0332 47.1473L41.0483 43.3623L41.0458 35.3587L41.0494 30.6434L41.0523 29.0679C41.0522 28.7545 41.0685 28.4297 41.0299 28.1189C40.9286 27.305 40.618 26.5575 40.1749 25.8762C39.8557 25.3856 39.467 24.9419 39.0016 24.5885L37.5274 23.5674L34.095 21.2219L24.294 14.5737L16.2721 9.13988L14.2445 7.76281C13.9013 7.52415 13.5632 7.24812 13.2096 7.02941C12.9599 6.87495 12.6825 6.78842 12.3982 6.72903Z" fill="#E3FE0F"/>
</svg>
