<svg width="171" height="12" viewBox="0 0 171 12" fill="none" xmlns="http://www.w3.org/2000/svg">
<path d="M1 9.84515C3.59507 8.98147 7.1749 8.96795 9.78921 8.77567C18.744 8.11704 27.7032 7.58507 36.6432 6.78122C56.4257 5.00246 76.1236 2.29587 95.979 1.11583C96.6268 1.07733 97.276 1.05752 97.9245 1.02912C99.0469 0.979963 98.7318 0.983305 97.5771 1.11583C92.6312 1.68344 87.6832 2.30557 82.7779 3.08137C78.0777 3.82473 65.8362 4.67916 64.2962 9.90296C63.7137 11.8789 81.5346 10.5934 82.4999 10.5389C103.165 9.37113 123.602 5.98859 144.268 4.58444C153.096 3.98453 161.95 3.60166 170.809 3.60166C171.758 3.60166 168.91 3.60166 167.96 3.60166" stroke="#E3FE0F" stroke-width="2" stroke-linecap="round"/>
</svg>
