<svg width="180" height="28" viewBox="0 0 180 28" fill="none" xmlns="http://www.w3.org/2000/svg">
<path d="M164.259 16.8164C164.259 14.5378 164.966 12.7419 166.38 11.4288C167.794 10.0964 169.636 9.43018 171.906 9.43018C174.176 9.43018 175.998 10.0674 177.372 11.3419C178.766 12.6164 179.462 14.3447 179.462 16.5267V17.7433H167.903C167.943 18.8826 168.321 19.7998 169.038 20.495C169.775 21.1709 170.88 21.5088 172.354 21.5088C174.484 21.5088 175.749 20.7267 176.147 19.1626H180C179.741 20.495 178.965 21.7309 177.67 22.8702C176.376 23.9902 174.604 24.5502 172.354 24.5502C169.705 24.5502 167.694 23.8164 166.32 22.3488C164.946 20.8812 164.259 19.0371 164.259 16.8164ZM167.903 15.484H175.818C175.818 14.615 175.49 13.9005 174.833 13.3405C174.196 12.7805 173.22 12.5005 171.906 12.5005C170.591 12.5005 169.596 12.7902 168.919 13.3695C168.242 13.9295 167.903 14.6343 167.903 15.484Z" fill="white"/>
<path d="M151.439 24.2604V11.7183C151.439 10.9845 151.638 10.4245 152.036 10.0383C152.455 9.65209 153.042 9.46864 153.799 9.48795L163.028 9.71968V12.9638L155.292 12.7611V24.2604H151.439Z" fill="white"/>
<path d="M134.678 22.5226C133.145 21.1709 132.378 19.3267 132.378 16.9902C132.378 14.6536 133.145 12.8095 134.678 11.4578C136.211 10.106 138.192 9.43018 140.622 9.43018C143.031 9.43018 145.002 10.106 146.536 11.4578C148.069 12.8095 148.836 14.6536 148.836 16.9902C148.836 19.3267 148.069 21.1709 146.536 22.5226C145.002 23.8743 143.031 24.5502 140.622 24.5502C138.192 24.5502 136.211 23.8743 134.678 22.5226ZM137.396 13.8329C136.619 14.6053 136.231 15.6578 136.231 16.9902C136.231 18.3226 136.619 19.375 137.396 20.1474C138.172 20.9198 139.248 21.306 140.622 21.306C141.996 21.306 143.071 20.9198 143.848 20.1474C144.624 19.375 145.012 18.3226 145.012 16.9902C145.012 15.6578 144.624 14.6053 143.848 13.8329C143.071 13.0605 141.996 12.6743 140.622 12.6743C139.248 12.6743 138.172 13.0605 137.396 13.8329Z" fill="white"/>
<path d="M109.896 14.0356C109.896 11.0038 110.841 8.50315 112.733 6.5335C114.625 4.54453 117.154 3.55005 120.32 3.55005C123.167 3.55005 125.477 4.28384 127.249 5.75143C129.021 7.1997 130.067 9.18867 130.385 11.7183H126.532C126.293 10.1349 125.626 8.91832 124.531 8.06867C123.456 7.21901 122.072 6.79419 120.379 6.79419C118.289 6.79419 116.656 7.44108 115.481 8.73488C114.326 10.0094 113.749 11.7763 113.749 14.0356C113.749 16.2949 114.326 18.0714 115.481 19.3652C116.656 20.659 118.289 21.3059 120.379 21.3059C122.072 21.3059 123.456 20.8811 124.531 20.0314C125.626 19.1625 126.293 17.9363 126.532 16.3528H130.385C130.067 18.9018 129.021 20.91 127.249 22.3776C125.477 23.8259 123.167 24.55 120.32 24.55C117.154 24.55 114.625 23.5652 112.733 21.5956C110.841 19.6066 109.896 17.0866 109.896 14.0356Z" fill="white"/>
<path d="M90.9873 20.2633C90.9873 19.0081 91.4154 18.0136 92.2717 17.2798C93.1478 16.546 94.5815 16.0633 96.5728 15.8316L101.77 15.2233C101.71 13.4081 100.555 12.5005 98.3052 12.5005C97.2498 12.5005 96.4035 12.7322 95.7663 13.1957C95.149 13.6398 94.8404 14.3157 94.8404 15.2233H91.1964C91.1964 13.5047 91.8535 12.1143 93.1677 11.0522C94.482 9.97087 96.1944 9.43018 98.3052 9.43018C100.476 9.43018 102.238 10.0095 103.592 11.1681C104.946 12.3074 105.623 13.9488 105.623 16.0922V21.0164H107.803V24.2605H104.757C104.1 24.2605 103.592 24.0867 103.234 23.7391C102.895 23.3916 102.726 22.9088 102.726 22.2909V21.7985L103.323 20.1474H102.308C101.591 23.0826 99.5796 24.5502 96.2741 24.5502C95.1988 24.5502 94.2828 24.4053 93.5262 24.1157C92.7894 23.826 92.2517 23.4398 91.9132 22.9571C91.5747 22.4743 91.3358 22.0205 91.1964 21.5957C91.057 21.1516 90.9873 20.7074 90.9873 20.2633ZM94.8404 19.626C94.8404 20.186 95.0295 20.6109 95.4079 20.9005C95.8061 21.1709 96.3239 21.306 96.9611 21.306C98.4147 21.306 99.5796 20.9585 100.456 20.2633C101.332 19.5488 101.77 18.6219 101.77 17.4826L97.2597 18.0329C96.4035 18.1295 95.7862 18.2936 95.4079 18.5253C95.0295 18.7378 94.8404 19.1047 94.8404 19.626Z" fill="white"/>
<path d="M73.1001 24.2604L78.7752 17.4535V16.4977L73.1001 9.71973H77.67L81.5828 14.8466L85.4658 9.71973H90.0357L84.3606 16.4977V17.4535L90.0357 24.2604H85.4658L81.5828 19.1046L77.67 24.2604H73.1001Z" fill="white"/>
<path d="M57.356 16.8164C57.356 14.5378 58.0629 12.7419 59.4766 11.4288C60.8904 10.0964 62.7323 9.43018 65.0024 9.43018C67.2724 9.43018 69.0944 10.0674 70.4683 11.3419C71.8622 12.6164 72.5592 14.3447 72.5592 16.5267V17.7433H60.9999C61.0398 18.8826 61.4181 19.7998 62.135 20.495C62.8717 21.1709 63.9769 21.5088 65.4504 21.5088C67.581 21.5088 68.8455 20.7267 69.2437 19.1626H73.0968C72.8379 20.495 72.0613 21.7309 70.767 22.8702C69.4727 23.9902 67.7005 24.5502 65.4504 24.5502C62.802 24.5502 60.7909 23.8164 59.4169 22.3488C58.0429 20.8812 57.356 19.0371 57.356 16.8164ZM60.9999 15.484H68.9152C68.9152 14.615 68.5866 13.9005 67.9295 13.3405C67.2923 12.7805 66.3166 12.5005 65.0024 12.5005C63.6881 12.5005 62.6925 12.7902 62.0155 13.3695C61.3385 13.9295 60.9999 14.6343 60.9999 15.484Z" fill="white"/>
<path d="M51.1333 3.8396H54.9565V24.2603H51.1333V15.8893H39.813V24.2603H35.96V3.8396H39.813V12.6451H51.1333V3.8396Z" fill="white"/>
<path fill-rule="evenodd" clip-rule="evenodd" d="M4.34537 4.36617C4.49487 4.2445 4.65501 4.13356 4.8147 4.02293C4.89381 3.96813 4.9728 3.9134 5.05034 3.85749L8.06172 1.69465C11.2172 -0.59234 12.7949 -0.578207 16.097 1.82011L20.6767 5.06459C22.5818 6.44639 23.4953 7.37906 23.9572 9.858C24.013 10.1569 24.0074 10.489 24.0022 10.8059V10.806V10.8061C24.0006 10.8994 23.9991 10.9915 23.9992 11.081L23.9992 16.163C23.9992 16.314 24.0011 16.4663 24.0029 16.6191C24.0101 17.202 24.0173 17.7939 23.9189 18.3631C23.4678 20.972 22.1339 21.9445 20.0686 23.3982L15.9075 26.366C15.8047 26.4391 15.7028 26.5133 15.601 26.5875C15.2712 26.8277 14.9418 27.0676 14.5838 27.2666C12.4038 28.4783 10.5258 28.1162 8.56247 26.7115L4.03382 23.4643C3.85442 23.3666 3.67659 23.2304 3.50462 23.0987C3.43626 23.0463 3.36882 22.9946 3.30257 22.9464C1.31968 21.5023 0.0161884 20.0326 0.010374 17.4055L0.00995888 11.28C0.0100054 11.183 0.00757351 11.0823 0.00510155 10.9799C-0.00188038 10.6907 -0.0091817 10.3883 0.0381409 10.1193C0.513617 7.41587 1.34775 6.50386 3.43613 5.01984L4.04794 4.57473C4.07392 4.55578 4.09999 4.53579 4.12629 4.51563C4.19691 4.46151 4.26916 4.40614 4.34537 4.36617ZM5.69556 9.99938C5.08706 11.0247 5.06903 11.6273 5.06837 12.7984L5.06867 14.2513C5.06884 14.483 5.06528 14.6986 5.06193 14.902V14.902C5.04158 16.137 5.02865 16.9212 5.90137 18.1074C6.33882 18.5439 6.83352 18.8837 7.34886 19.2196L9.01012 20.2678C9.11519 20.3343 9.21662 20.3988 9.31477 20.4613C11.3129 21.7325 11.9505 22.1382 14.1492 20.8066L16.7111 19.2213C18.4389 18.1175 18.9361 17.3575 18.9391 15.3853L18.9377 11.7026C18.9068 10.252 17.8999 9.39986 16.7794 8.70937L14.2818 7.15937C12.5796 6.10562 11.8362 5.9099 9.95295 7.0223L8.24683 8.08546C8.07801 8.19277 7.90599 8.2982 7.73334 8.40401C7.23337 8.71043 6.72812 9.02009 6.27979 9.38808C6.12921 9.51164 6.00908 9.64847 5.88672 9.78782C5.83074 9.85159 5.77429 9.91588 5.71425 9.97968L5.69556 9.99938ZM11.9422 8.43124C12.5833 8.33916 13.3874 8.89054 14.0101 9.31752C14.1639 9.42296 14.3066 9.52081 14.433 9.59951L15.5676 10.3027C16.7757 11.0594 16.9344 11.4152 16.9356 12.9161L16.9355 15.2585C16.9343 16.4563 16.6818 16.8912 15.7162 17.492L13.2746 19.0133C13.2359 19.0356 13.197 19.0586 13.1577 19.0818L13.1576 19.0819C12.9869 19.1828 12.8102 19.2872 12.627 19.352L12.5996 19.3614C12.4264 19.4224 12.2621 19.4434 12.0804 19.4625C11.2948 19.4828 10.4714 18.9158 9.76016 18.4261C9.58985 18.3089 9.42597 18.1961 9.27059 18.0968C9.08742 17.9797 8.91588 17.8746 8.75592 17.7765L8.75591 17.7765C7.64235 17.0939 7.09054 16.7557 7.08929 15.1482L7.08989 12.7862C7.09125 11.7605 7.1688 11.2346 8.07911 10.5646C8.47319 10.2745 8.8998 10.0213 9.32396 9.76959L9.32401 9.76956C9.48843 9.67198 9.65247 9.57461 9.81412 9.4754C9.94984 9.39208 10.0832 9.30522 10.2161 9.21861L10.2161 9.21861C10.7539 8.86829 11.2853 8.52211 11.9422 8.43124ZM11.9354 11.0215C9.91314 11.1747 9.2392 12.7924 9.39393 14.6168C9.50494 15.9262 10.7919 16.9988 12.1005 16.942C12.8396 16.8909 13.5803 16.4963 14.0677 15.9402C14.6878 15.2327 14.7045 14.2198 14.6424 13.3251C14.5543 12.0548 13.2024 10.9284 11.9354 11.0215ZM13.4902 15.2678C14.3981 14.0202 13.6788 11.7734 11.8346 11.9246C10.7093 12.1266 10.2559 12.9186 10.2566 13.9963C10.2573 15.2073 10.8962 16.1175 12.2471 15.9859C12.7436 15.9085 13.1901 15.6803 13.4902 15.2678Z" fill="url(#paint0_linear_1_364)"/>
<defs>
<linearGradient id="paint0_linear_1_364" x1="-4.65251" y1="12.0843" x2="29.6164" y2="0.842014" gradientUnits="userSpaceOnUse">
<stop offset="0.249585" stop-color="#E3FE0F"/>
<stop offset="1" stop-color="#506491"/>
</linearGradient>
</defs>
</svg>
